<svg xmlns="http://www.w3.org/2000/svg" width="111.318" height="102" viewBox="0 0 111.318 102">
  <g id="Grupo_238" data-name="Grupo 238" transform="translate(-774.457 -262.093)">
    <g id="Grupo_167" data-name="Grupo 167">
      <path id="Trazado_326" data-name="Trazado 326" d="M877.5,263.093H782.731a7.3,7.3,0,0,0-7.274,7.275v9.353H884.774v-9.353A7.3,7.3,0,0,0,877.5,263.093Z" fill="#837dbd" fill-rule="evenodd"/>
      <rect id="Rectángulo_80" data-name="Rectángulo 80" width="109.318" height="100" rx="7.275" transform="translate(775.457 263.093)" fill="none" stroke="#666" stroke-miterlimit="22.926" stroke-width="2"/>
      <line id="Línea_109" data-name="Línea 109" x2="109.316" transform="translate(775.457 279.721)" fill="none" stroke="#666" stroke-miterlimit="22.926" stroke-width="2"/>
      <line id="Línea_110" data-name="Línea 110" x2="6.424" y2="6.424" transform="translate(868.075 268.109)" fill="none" stroke="#666" stroke-linecap="round" stroke-miterlimit="22.926" stroke-width="2"/>
      <line id="Línea_111" data-name="Línea 111" x1="6.423" y2="6.424" transform="translate(868.075 268.109)" fill="none" stroke="#666" stroke-linecap="round" stroke-miterlimit="22.926" stroke-width="2"/>
      <line id="Línea_112" data-name="Línea 112" x1="7.499" transform="translate(853.214 274.533)" fill="none" stroke="#666" stroke-linecap="round" stroke-miterlimit="22.926" stroke-width="2"/>
    </g>
    <path id="Trazado_327" data-name="Trazado 327" d="M808.209,336.413c-6.518,0-11.8-5.617-11.8-12.545a12.384,12.384,0,0,1,9.437-12.294c.08-6.856,5.332-12.388,11.8-12.388a11.235,11.235,0,0,1,6.234,1.893,15.458,15.458,0,0,1,13.686-8.658c8.6,0,15.566,7.408,15.566,16.548a17.8,17.8,0,0,1-.1,1.829c6.065.69,10.789,6.139,10.789,12.762,0,7.1-5.425,12.836-12.1,12.836Z" fill="#837dbd" stroke="#666" stroke-linecap="round" stroke-linejoin="round" stroke-width="2" fill-rule="evenodd"/>
    <g id="Grupo_168" data-name="Grupo 168">
      <line id="Línea_113" data-name="Línea 113" x2="19.57" transform="translate(820.331 347.381)" fill="none" stroke="#666" stroke-linecap="round" stroke-miterlimit="22.926" stroke-width="2"/>
      <line id="Línea_114" data-name="Línea 114" x2="52.871" transform="translate(803.68 353.275)" fill="none" stroke="#666" stroke-linecap="round" stroke-miterlimit="22.926" stroke-width="2"/>
    </g>
  </g>
</svg>
