<svg xmlns="http://www.w3.org/2000/svg" width="15.302" height="16.645" viewBox="0 0 15.302 16.645"><path d="M390.936,208.108v12.523a1.753,1.753,0,0,1-1.749,1.748H377.383a1.753,1.753,0,0,1-1.748-1.748V208.108h2.7v-.868a1.525,1.525,0,0,1,3.05,0v.868h3.8v-.868a1.525,1.525,0,0,1,3.05,0v.868Zm-.914,10.68h-2.937v2.719h2.1a.882.882,0,0,0,.834-.609v-2.111Zm-3.478,0h-2.937v2.719h2.937v-2.719Zm-3.477,0H380.13v2.719h2.937v-2.719Zm-3.478,0h-3.042V220.9a.882.882,0,0,0,.834.609h2.207v-2.719Zm10.433-3.477h-2.937v2.833h2.937v-2.833Zm-3.478,0h-2.937v2.833h2.937v-2.833Zm-3.477,0H380.13v2.833h2.937v-2.833Zm-3.478,0h-3.042v2.833h3.042v-2.833Zm7.5-3.582v2.937h2.937v-2.937Zm-3.477,0v2.937h2.937v-2.937Zm-3.478,0v2.937h2.937v-2.937Zm-.54,0h-3.042v2.937h3.042Z" transform="translate(-375.634 -205.734)" fill="#666" fill-rule="evenodd"/></svg>