<svg xmlns="http://www.w3.org/2000/svg" width="106.686" height="102" viewBox="0 0 106.686 102">
  <g id="Grupo_171" data-name="Grupo 171" transform="translate(-553.18 -264.032)">
    <path id="Trazado_328" data-name="Trazado 328" d="M623.889,353.117H590.228v8.278a3.647,3.647,0,0,0,3.637,3.637h26.387a3.647,3.647,0,0,0,3.637-3.637Z" fill="#d6d6d6" fill-rule="evenodd"/>
    <g id="Grupo_170" data-name="Grupo 170">
      <path id="Trazado_329" data-name="Trazado 329" d="M559.521,310.216a47.666,47.666,0,0,1,41.431-40.125" fill="none" stroke="#666" stroke-linecap="round" stroke-miterlimit="22.926" stroke-width="2" stroke-dasharray="2.88 4.32" fill-rule="evenodd"/>
      <path id="Trazado_330" data-name="Trazado 330" d="M649.486,269.723H611.214m-9.381,0H563.561" fill="none" stroke="#666" stroke-miterlimit="22.926" stroke-width="2" fill-rule="evenodd"/>
      <rect id="Rectángulo_81" data-name="Rectángulo 81" width="9.381" height="9.38" transform="translate(649.47 314.02)" fill="none" stroke="#666" stroke-miterlimit="22.926" stroke-width="2"/>
      <rect id="Rectángulo_82" data-name="Rectángulo 82" width="9.381" height="9.38" transform="translate(554.196 314.02)" fill="none" stroke="#666" stroke-miterlimit="22.926" stroke-width="2"/>
      <rect id="Rectángulo_83" data-name="Rectángulo 83" width="9.381" height="9.38" transform="translate(601.833 265.032)" fill="none" stroke="#666" stroke-miterlimit="22.926" stroke-width="2"/>
      <path id="Trazado_331" data-name="Trazado 331" d="M654.176,265.032h0a4.7,4.7,0,0,1,4.69,4.691h0a4.7,4.7,0,0,1-4.69,4.69h0a4.7,4.7,0,0,1-4.69-4.69h0A4.7,4.7,0,0,1,654.176,265.032Z" fill="none" stroke="#666" stroke-miterlimit="22.926" stroke-width="2" fill-rule="evenodd"/>
      <path id="Trazado_332" data-name="Trazado 332" d="M558.87,265.032h0a4.7,4.7,0,0,1,4.691,4.691h0a4.7,4.7,0,0,1-4.691,4.69h0a4.7,4.7,0,0,1-4.69-4.69h0A4.7,4.7,0,0,1,558.87,265.032Z" fill="none" stroke="#666" stroke-miterlimit="22.926" stroke-width="2" fill-rule="evenodd"/>
      <path id="Trazado_333" data-name="Trazado 333" d="M653.458,310.216a47.666,47.666,0,0,0-41.431-40.125" fill="none" stroke="#666" stroke-linecap="round" stroke-miterlimit="22.926" stroke-width="2" stroke-dasharray="2.88 4.32" fill-rule="evenodd"/>
      <path id="Trazado_334" data-name="Trazado 334" d="M606.524,326.908h0a4.7,4.7,0,0,1,4.69,4.69h0a4.7,4.7,0,0,1-4.69,4.69h0a4.7,4.7,0,0,1-4.691-4.69h0A4.7,4.7,0,0,1,606.524,326.908Z" fill="none" stroke="#666" stroke-miterlimit="22.926" stroke-width="2" fill-rule="evenodd"/>
      <path id="Trazado_335" data-name="Trazado 335" d="M590.228,353.117h33.661v8.278a3.647,3.647,0,0,1-3.637,3.637H593.865a3.647,3.647,0,0,1-3.637-3.637Z" fill="none" stroke="#666" stroke-miterlimit="22.926" stroke-width="2" fill-rule="evenodd"/>
      <path id="Trazado_336" data-name="Trazado 336" d="M623.889,353.117c0-8.376,0-23.5,11.542-23.5l-28.907-50.07-28.908,50.07c12.612,0,12.612,15.264,12.612,23.5Z" fill="none" stroke="#666" stroke-linecap="round" stroke-linejoin="round" stroke-width="2" fill-rule="evenodd"/>
      <line id="Línea_115" data-name="Línea 115" x1="0.001" y2="47.365" transform="translate(606.524 279.543)" fill="none" stroke="#666" stroke-linecap="round" stroke-miterlimit="22.926" stroke-width="2"/>
    </g>
  </g>
</svg>
