<svg xmlns="http://www.w3.org/2000/svg" width="111.734" height="102" viewBox="0 0 111.734 102">
  <g id="Grupo_234" data-name="Grupo 234" transform="translate(-566.864 -145.782)">
    <path id="Trazado_337" data-name="Trazado 337" d="M677.183,221.089H567.863v7.273a7.3,7.3,0,0,0,7.275,7.275h94.77a7.3,7.3,0,0,0,7.275-7.275v-7.273Zm-58.557,7.4a3.9,3.9,0,1,1,3.9,3.9A3.9,3.9,0,0,1,618.626,228.491Z" fill="#837dbd" fill-rule="evenodd"/>
    <path id="Trazado_380" data-name="Trazado 380" d="M0,0H24.783V11.145H0Z" transform="translate(610.132 235.637)" fill="#837dbd"/>
    <g id="Grupo_172" data-name="Grupo 172">
      <path id="Rectángulo_85" data-name="Rectángulo 85" d="M7.275,0h94.77a7.275,7.275,0,0,1,7.275,7.275V81.58a7.275,7.275,0,0,1-7.275,7.275H7.276A7.276,7.276,0,0,1,0,81.579V7.275A7.275,7.275,0,0,1,7.275,0Z" transform="translate(567.863 146.782)" fill="none" stroke="#666" stroke-miterlimit="22.926" stroke-width="2"/>
      <line id="Línea_116" data-name="Línea 116" x2="109.32" transform="translate(567.863 221.09)" fill="none" stroke="#666" stroke-miterlimit="22.926" stroke-width="2"/>
      <rect id="Rectángulo_86" data-name="Rectángulo 86" width="24.783" height="11.145" transform="translate(610.132 235.636)" fill="none" stroke="#666" stroke-miterlimit="22.926" stroke-width="2"/>
      <line id="Línea_117" data-name="Línea 117" x2="40.481" transform="translate(602.283 246.782)" fill="none" stroke="#666" stroke-linecap="round" stroke-miterlimit="22.926" stroke-width="2"/>
      <line id="Línea_118" data-name="Línea 118" x1="19.012" y2="19.012" transform="translate(658.171 154.057)" fill="none" stroke="#666" stroke-linecap="round" stroke-miterlimit="22.926" stroke-width="2"/>
      <line id="Línea_119" data-name="Línea 119" x1="41.466" y2="41.467" transform="translate(631.317 147.378)" fill="none" stroke="#666" stroke-linecap="round" stroke-miterlimit="22.926" stroke-width="2"/>
      <line id="Línea_120" data-name="Línea 120" x1="8.237" y2="8.237" transform="translate(645.246 177.858)" fill="none" stroke="#666" stroke-linecap="round" stroke-miterlimit="22.926" stroke-width="2"/>
    </g>
    <path id="Trazado_338" data-name="Trazado 338" d="M622.524,224.594a3.9,3.9,0,1,0,3.9,3.9A3.9,3.9,0,0,0,622.524,224.594Z" fill="none" stroke="#666" stroke-miterlimit="22.926" stroke-width="2" fill-rule="evenodd"/>
  </g>
</svg>
