<svg xmlns="http://www.w3.org/2000/svg" xmlns:xlink="http://www.w3.org/1999/xlink" width="210.66" height="76" viewBox="0 0 210.66 76"><defs><linearGradient id="a" x1="0.093" y1="0.854" x2="0.935" y2="0.092" gradientUnits="objectBoundingBox"><stop offset="0" stop-color="#7429af"/><stop offset="0.369" stop-color="#48619f"/><stop offset="0.902" stop-color="#30a0a4"/><stop offset="1" stop-color="#1c998f"/></linearGradient><clipPath id="b"><path d="M527.437,603.061a6.545,6.545,0,0,1,2.982.716l3.888-3.888a20.981,20.981,0,0,1,5.269-3.989,13.894,13.894,0,0,1,6.367-1.535l5.89-.03c11.463-.057,15.1-8.216,18.881-16.7,3.023-6.784,6.13-13.757,13.006-17.942a2.108,2.108,0,0,1,2.2,3.6c-5.76,3.506-8.6,9.869-11.355,16.059-4.346,9.753-8.523,19.127-22.712,19.2l-5.89.03a9.766,9.766,0,0,0-4.468,1.089,16.922,16.922,0,0,0-4.2,3.212l-3.917,3.917a6.573,6.573,0,0,1-1.276,7.52l-.008.008a6.576,6.576,0,0,1-9.313,0l-.008-.008a6.576,6.576,0,0,1,0-9.313l.008-.008a6.578,6.578,0,0,1,4.656-1.933Zm1.623,4.862a2.392,2.392,0,0,0-3.3.051l-.008.008a2.391,2.391,0,0,0,0,3.352l.008.008a2.391,2.391,0,0,0,3.352,0l.008-.008a2.393,2.393,0,0,0,.1-3.25l-.06-.057c-.034-.034-.066-.068-.1-.1Z" transform="translate(-520.84 -559.38)" clip-rule="evenodd"/></clipPath><linearGradient id="c" x1="0.219" y1="1.499" x2="0.675" y2="-0.329" gradientUnits="objectBoundingBox"><stop offset="0" stop-color="#7429af"/><stop offset="0.248" stop-color="#4280a7"/><stop offset="0.412" stop-color="#4281a7"/><stop offset="0.478" stop-color="#2b687d"/><stop offset="0.58" stop-color="#3794a5"/><stop offset="1" stop-color="#0fd89f"/></linearGradient><clipPath id="d"><path d="M473.394,7.8a6.6,6.6,0,0,1,6.251,4.484h6.066a54.594,54.594,0,0,1-5.163-4.706l-.189-.189c-.04-.037-.079-.077-.117-.118a9.479,9.479,0,0,0-11.681-1.78h-.009a9.457,9.457,0,0,0-3.458,3.467c-.713,1.235-1.386,2.6-2.1,4.049-1.037,2.109-2.146,4.366-3.479,6.54l-2.664,3.765c-3.532,4.258-8.494,7.512-16.351,7.512h-9.039a6.625,6.625,0,0,1-1.584,2.543l-.008.008a6.576,6.576,0,0,1-9.313,0l-.008-.008a6.576,6.576,0,0,1,0-9.313l.008-.008a6.576,6.576,0,0,1,9.313,0l.008.008a6.629,6.629,0,0,1,1.584,2.543H440.5a16.41,16.41,0,0,0,13.652-6.761l2.375-3.538c1-1.719,1.871-3.482,2.686-5.139.771-1.568,1.5-3.053,2.229-4.314a13.673,13.673,0,0,1,5-5l0,0a13.682,13.682,0,0,1,16.895,2.569l.194.194c2.848,2.852,7.668,7.678,12.608,7.678H515.5a2.114,2.114,0,1,1,0,4.227H479.645a6.6,6.6,0,0,1-1.586,2.552h-.008a6.577,6.577,0,0,1-9.314,0l-.008-.008a6.577,6.577,0,0,1,0-9.314V9.73A6.578,6.578,0,0,1,473.394,7.8Zm-46.5,19.226a2.391,2.391,0,0,0-3.352,0l-.008.008a2.39,2.39,0,0,0,0,3.352l.008.008a2.39,2.39,0,0,0,3.352,0l.008-.008a2.392,2.392,0,0,0,0-3.352Zm48.177-14.3a2.372,2.372,0,0,0-3.353,0l0,0a2.377,2.377,0,0,0,3.361,3.361l0,0a2.372,2.372,0,0,0,0-3.353Z" transform="translate(-418.62 0)" clip-rule="evenodd"/></clipPath><clipPath id="e"><path d="M262.28,421.01h0Z" transform="translate(-262.28 -421.01)" clip-rule="evenodd"/></clipPath><linearGradient id="f" x1="0.609" y1="1.213" x2="1.398" y2="-0.464" gradientUnits="objectBoundingBox"><stop offset="0" stop-color="#7429af"/><stop offset="0.412" stop-color="#4280a7"/><stop offset="1" stop-color="#0fd89f"/></linearGradient><clipPath id="g"><path d="M55.232,239.817a15.829,15.829,0,0,1,1.38,2.46,16.392,16.392,0,0,1,1.421,6.689,16.726,16.726,0,0,1-1.368,6.655c-2.307,5.326-7.436,9.5-15.126,9.642a6.625,6.625,0,0,1-1.631,2.686l-.008.008a6.576,6.576,0,0,1-9.313,0l-.008-.008a6.576,6.576,0,0,1,0-9.313l.008-.008a6.576,6.576,0,0,1,9.313,0l.008.008a6.637,6.637,0,0,1,1.534,2.4c5.822-.106,9.665-3.171,11.36-7.083a12.531,12.531,0,0,0,1.021-4.988A12.177,12.177,0,0,0,52.765,244q-.093-.208-.2-.413a12.546,12.546,0,0,0-2.7-3.476c-2.32-2.013-5.7-3.325-10.188-3.325H12.866a6.627,6.627,0,0,1-1.584,2.543l-.008.008a6.576,6.576,0,0,1-9.313,0l-.008-.008a6.576,6.576,0,0,1,0-9.313L1.961,230a6.576,6.576,0,0,1,9.313,0l.008.008a6.636,6.636,0,0,1,1.584,2.543H39.681c5.4,0,9.568,1.567,12.563,4.014a23.973,23.973,0,0,1,2.988,3.25Zm-17.62,23.415h0v-.03a2.353,2.353,0,0,0-.684-1.584l-.008-.008a2.391,2.391,0,0,0-3.352,0l-.008.008a2.391,2.391,0,0,0,0,3.352l.008.008a2.391,2.391,0,0,0,3.352,0l.008-.008a2.36,2.36,0,0,0,.686-1.676v-.06ZM8.987,234.667h0a2.358,2.358,0,0,0-.686-1.676l-.008-.008a2.39,2.39,0,0,0-3.352,0l-.008.008a2.391,2.391,0,0,0,0,3.352l.008.008a2.391,2.391,0,0,0,3.352,0l.008-.008A2.36,2.36,0,0,0,8.987,234.667Z" transform="translate(-0.02 -228.07)" clip-rule="evenodd"/></clipPath></defs><g transform="translate(-0.02)"><g transform="translate(0.02 0)"><path d="M4072.289,773.671l.135-2.821q.134-1.925-1.7-1.925h-.671q-1.792,0-1.926,1.925l-.268,5.328a1.539,1.539,0,0,0,.29,1.209,8.407,8.407,0,0,0,1.1.806l3.85,2.194a15.406,15.406,0,0,1,1.814,1.187,3.015,3.015,0,0,1,.805,1.03,5.405,5.405,0,0,1,.2,2.306l-.358,6.85q-.27,5.418-5.373,5.417h-2.552q-5.06,0-4.746-5.91l.09-1.611h4.208l-.134,1.746a1.578,1.578,0,0,0,1.791,1.88h.761q1.656,0,1.746-1.88l.313-5.463a1.539,1.539,0,0,0-.29-1.209,8.5,8.5,0,0,0-1.1-.806l-3.85-2.284a11.117,11.117,0,0,1-1.858-1.209,2.612,2.612,0,0,1-.784-1.276,6.724,6.724,0,0,1-.18-2.037l.359-6.582q.268-5.507,5.328-5.507h2.6q5.06,0,4.791,5.507l-.179,3.134h-4.209Zm-17.417,23.506.761-14.6h-5.194l-.761,14.6h-4.208l1.657-32.148h4.208l-.717,13.656h5.194l.717-13.656h4.208l-1.657,32.148Zm-12.313-7.522-.134,2.059q-.269,5.463-5.328,5.462h-2.686q-5.06,0-4.791-5.462l1.119-21.223q.269-5.463,5.328-5.462h2.686q5.06,0,4.791,5.462l-.179,3.627h-4.208l.179-3.313a1.578,1.578,0,0,0-1.791-1.88h-.851q-1.657,0-1.746,1.88l-1.12,20.6q-.089,1.88,1.567,1.88h1.075q1.657,0,1.747-1.88l.134-1.746Zm-26.461,7.522,1.656-32.148h10.477l-.179,3.9h-6.268l-.537,9.761h5.552l-.179,3.895h-5.552l-.582,10.7h6.268l-.179,3.9Zm-4.97-28.252-1.478,28.252h-4.209l1.478-28.252h-4.03l.179-3.9h12.268l-.179,3.9h-4.029Z" transform="translate(-3866.031 -738.873)" fill="#4a71a8"/><path d="M2615.219,780.556l.806-15.536h4.209l-1.657,32.148h-4.208l.313-6.4-3.761-14.641-1.075,21.044h-4.208l1.656-32.148h4.209Zm-11.865-15.536-1.343,26.058q-.314,6.09-5.418,6.089h-3.537q-5.06,0-4.746-6.134l1.343-26.014h4.209l-1.343,26.148q-.134,2.1,1.7,2.1h1.746q1.7,0,1.836-2.1l1.343-26.148Zm-24.715,28.252h7.119l-.179,3.9h-11.294c-.792,0-.75-.926-.571-1.522l8.015-26.686h-5.3a1.972,1.972,0,1,1,.179-3.94h8.883c.668,0,1.178.554.806,1.836Z" transform="translate(-2485.614 -738.864)" fill="#1fbca2"/><path d="M527.437,603.061a6.545,6.545,0,0,1,2.982.716l3.888-3.888a20.981,20.981,0,0,1,5.269-3.989,13.894,13.894,0,0,1,6.367-1.535l5.89-.03c11.463-.057,15.1-8.216,18.881-16.7,3.023-6.784,6.13-13.757,13.006-17.942a2.108,2.108,0,0,1,2.2,3.6c-5.76,3.506-8.6,9.869-11.355,16.059-4.346,9.753-8.523,19.127-22.712,19.2l-5.89.03a9.766,9.766,0,0,0-4.468,1.089,16.922,16.922,0,0,0-4.2,3.212l-3.917,3.917a6.573,6.573,0,0,1-1.276,7.52l-.008.008a6.576,6.576,0,0,1-9.313,0l-.008-.008a6.576,6.576,0,0,1,0-9.313l.008-.008a6.578,6.578,0,0,1,4.656-1.933Zm1.623,4.862a2.392,2.392,0,0,0-3.3.051l-.008.008a2.391,2.391,0,0,0,0,3.352l.008.008a2.391,2.391,0,0,0,3.352,0l.008-.008a2.393,2.393,0,0,0,.1-3.25l-.06-.057c-.034-.034-.066-.068-.1-.1Z" transform="translate(-503.033 -540.255)" fill="url(#a)"/><g transform="translate(17.807 19.125)" clip-path="url(#b)"><g transform="translate(18.958 -12.26)"><path d="M1530.468,213.489a18.131,18.131,0,0,0-2.988-3.25l3.933-9.429,8.71,11.27Z" transform="translate(-1512.021 -200.81)" fill="#263360" fill-rule="evenodd"/><path d="M1088.414,580.08a14.59,14.59,0,0,1,2.7,3.476l-5.67,12.05-10.113-13.5Z" transform="translate(-1075.33 -567.113)" fill="#263360" fill-rule="evenodd"/></g></g><path d="M527.437,603.061a6.545,6.545,0,0,1,2.982.716l3.888-3.888a20.981,20.981,0,0,1,5.269-3.989,13.894,13.894,0,0,1,6.367-1.535l5.89-.03c11.463-.057,15.1-8.216,18.881-16.7,3.023-6.784,6.13-13.757,13.006-17.942a2.108,2.108,0,0,1,2.2,3.6c-5.76,3.506-8.6,9.869-11.355,16.059-4.346,9.753-8.523,19.127-22.712,19.2l-5.89.03a9.766,9.766,0,0,0-4.468,1.089,16.922,16.922,0,0,0-4.2,3.212l-3.917,3.917a6.573,6.573,0,0,1-1.276,7.52l-.008.008a6.576,6.576,0,0,1-9.313,0l-.008-.008a6.576,6.576,0,0,1,0-9.313l.008-.008a6.578,6.578,0,0,1,4.656-1.933Zm1.623,4.862a2.392,2.392,0,0,0-3.3.051l-.008.008a2.391,2.391,0,0,0,0,3.352l.008.008a2.391,2.391,0,0,0,3.352,0l.008-.008a2.393,2.393,0,0,0,.1-3.25l-.06-.057c-.034-.034-.066-.068-.1-.1Z" transform="translate(-503.033 -540.255)" fill="none"/><path d="M473.394,7.8a6.6,6.6,0,0,1,6.251,4.484h6.066a54.594,54.594,0,0,1-5.163-4.706l-.189-.189c-.04-.037-.079-.077-.117-.118a9.479,9.479,0,0,0-11.681-1.78h-.009a9.457,9.457,0,0,0-3.458,3.467c-.713,1.235-1.386,2.6-2.1,4.049-1.037,2.109-2.146,4.366-3.479,6.54l-2.664,3.765c-3.532,4.258-8.494,7.512-16.351,7.512h-9.039a6.625,6.625,0,0,1-1.584,2.543l-.008.008a6.576,6.576,0,0,1-9.313,0l-.008-.008a6.576,6.576,0,0,1,0-9.313l.008-.008a6.576,6.576,0,0,1,9.313,0l.008.008a6.629,6.629,0,0,1,1.584,2.543H440.5a16.41,16.41,0,0,0,13.652-6.761l2.375-3.538c1-1.719,1.871-3.482,2.686-5.139.771-1.568,1.5-3.053,2.229-4.314a13.673,13.673,0,0,1,5-5l0,0a13.682,13.682,0,0,1,16.895,2.569l.194.194c2.848,2.852,7.668,7.678,12.608,7.678H515.5a2.114,2.114,0,1,1,0,4.227H479.645a6.6,6.6,0,0,1-1.586,2.552h-.008a6.577,6.577,0,0,1-9.314,0l-.008-.008a6.577,6.577,0,0,1,0-9.314V9.73A6.578,6.578,0,0,1,473.394,7.8Zm-46.5,19.226a2.391,2.391,0,0,0-3.352,0l-.008.008a2.39,2.39,0,0,0,0,3.352l.008.008a2.39,2.39,0,0,0,3.352,0l.008-.008a2.392,2.392,0,0,0,0-3.352Zm48.177-14.3a2.372,2.372,0,0,0-3.353,0l0,0a2.377,2.377,0,0,0,3.361,3.361l0,0a2.372,2.372,0,0,0,0-3.353Z" transform="translate(-404.308 0)" fill="url(#c)"/><g transform="translate(14.312)" clip-path="url(#d)"><g transform="translate(51.127 18.316)"><path d="M1930.448,535.72a11.046,11.046,0,0,1,2.7,3.476l-5.67,15.353-13.5-11.517,16.468-7.312Z" transform="translate(-1913.98 -535.72)" fill="#263360" fill-rule="evenodd"/></g></g><path d="M473.394,7.8a6.6,6.6,0,0,1,6.251,4.484h6.066a54.594,54.594,0,0,1-5.163-4.706l-.189-.189c-.04-.037-.079-.077-.117-.118a9.479,9.479,0,0,0-11.681-1.78h-.009a9.457,9.457,0,0,0-3.458,3.467c-.713,1.235-1.386,2.6-2.1,4.049-1.037,2.109-2.146,4.366-3.479,6.54l-2.664,3.765c-3.532,4.258-8.494,7.512-16.351,7.512h-9.039a6.625,6.625,0,0,1-1.584,2.543l-.008.008a6.576,6.576,0,0,1-9.313,0l-.008-.008a6.576,6.576,0,0,1,0-9.313l.008-.008a6.576,6.576,0,0,1,9.313,0l.008.008a6.629,6.629,0,0,1,1.584,2.543H440.5a16.41,16.41,0,0,0,13.652-6.761l2.375-3.538c1-1.719,1.871-3.482,2.686-5.139.771-1.568,1.5-3.053,2.229-4.314a13.673,13.673,0,0,1,5-5l0,0a13.682,13.682,0,0,1,16.895,2.569l.194.194c2.848,2.852,7.668,7.678,12.608,7.678H515.5a2.114,2.114,0,1,1,0,4.227H479.645a6.6,6.6,0,0,1-1.586,2.552h-.008a6.577,6.577,0,0,1-9.314,0l-.008-.008a6.577,6.577,0,0,1,0-9.314V9.73A6.578,6.578,0,0,1,473.394,7.8Zm-46.5,19.226a2.391,2.391,0,0,0-3.352,0l-.008.008a2.39,2.39,0,0,0,0,3.352l.008.008a2.39,2.39,0,0,0,3.352,0l.008-.008a2.392,2.392,0,0,0,0-3.352Zm48.177-14.3a2.372,2.372,0,0,0-3.353,0l0,0a2.377,2.377,0,0,0,3.361,3.361l0,0a2.372,2.372,0,0,0,0-3.353Z" transform="translate(-404.308 0)" fill="none"/><g transform="translate(8.967 14.394)" clip-path="url(#e)"><g transform="translate(27.798 -220.2)"><path d="M1930.448,535.72c1.4,35.7,2.109,68.38,2.7,101.67l-5.67,449.05-13.5-336.86,16.468-213.85Z" transform="translate(-1885.306 -200.81)" fill="#263360" fill-rule="evenodd"/><path d="M1530.468,571.65c-.89-36-1.686-61.47-2.988-95.06l3.933-275.78,8.71,329.62Z" transform="translate(-1512.021 -200.81)" fill="#263360" fill-rule="evenodd"/><path d="M1088.414,580.08c1.219,35.86,2.109,68.39,2.7,101.67l-5.67,352.45L1075.33,639.39l13.084-59.31Z" transform="translate(-1075.33 -200.81)" fill="#263360" fill-rule="evenodd"/></g></g><path d="M262.28,421.01h0Z" transform="translate(-253.313 -406.616)" fill="none"/><path d="M55.232,239.817a15.829,15.829,0,0,1,1.38,2.46,16.392,16.392,0,0,1,1.421,6.689,16.726,16.726,0,0,1-1.368,6.655c-2.307,5.326-7.436,9.5-15.126,9.642a6.625,6.625,0,0,1-1.631,2.686l-.008.008a6.576,6.576,0,0,1-9.313,0l-.008-.008a6.576,6.576,0,0,1,0-9.313l.008-.008a6.576,6.576,0,0,1,9.313,0l.008.008a6.637,6.637,0,0,1,1.534,2.4c5.822-.106,9.665-3.171,11.36-7.083a12.531,12.531,0,0,0,1.021-4.988A12.177,12.177,0,0,0,52.765,244q-.093-.208-.2-.413a12.546,12.546,0,0,0-2.7-3.476c-2.32-2.013-5.7-3.325-10.188-3.325H12.866a6.627,6.627,0,0,1-1.584,2.543l-.008.008a6.576,6.576,0,0,1-9.313,0l-.008-.008a6.576,6.576,0,0,1,0-9.313L1.961,230a6.576,6.576,0,0,1,9.313,0l.008.008a6.636,6.636,0,0,1,1.584,2.543H39.681c5.4,0,9.568,1.567,12.563,4.014a23.973,23.973,0,0,1,2.988,3.25Zm-17.62,23.415h0v-.03a2.353,2.353,0,0,0-.684-1.584l-.008-.008a2.391,2.391,0,0,0-3.352,0l-.008.008a2.391,2.391,0,0,0,0,3.352l.008.008a2.391,2.391,0,0,0,3.352,0l.008-.008a2.36,2.36,0,0,0,.686-1.676v-.06ZM8.987,234.667h0a2.358,2.358,0,0,0-.686-1.676l-.008-.008a2.39,2.39,0,0,0-3.352,0l-.008.008a2.391,2.391,0,0,0,0,3.352l.008.008a2.391,2.391,0,0,0,3.352,0l.008-.008A2.36,2.36,0,0,0,8.987,234.667Z" transform="translate(-0.02 -220.272)" fill="url(#f)"/><g transform="translate(0 7.798)" clip-path="url(#g)"><g transform="translate(65.439 10.519)"><path d="M1930.448,535.72a11.046,11.046,0,0,1,2.7,3.476l-5.67,15.353-13.5-11.517,16.468-7.312Z" transform="translate(-1913.98 -535.72)" fill="#263360" fill-rule="evenodd"/></g></g><path d="M55.232,239.817a15.829,15.829,0,0,1,1.38,2.46,16.392,16.392,0,0,1,1.421,6.689,16.726,16.726,0,0,1-1.368,6.655c-2.307,5.326-7.436,9.5-15.126,9.642a6.625,6.625,0,0,1-1.631,2.686l-.008.008a6.576,6.576,0,0,1-9.313,0l-.008-.008a6.576,6.576,0,0,1,0-9.313l.008-.008a6.576,6.576,0,0,1,9.313,0l.008.008a6.637,6.637,0,0,1,1.534,2.4c5.822-.106,9.665-3.171,11.36-7.083a12.531,12.531,0,0,0,1.021-4.988A12.177,12.177,0,0,0,52.765,244q-.093-.208-.2-.413a12.546,12.546,0,0,0-2.7-3.476c-2.32-2.013-5.7-3.325-10.188-3.325H12.866a6.627,6.627,0,0,1-1.584,2.543l-.008.008a6.576,6.576,0,0,1-9.313,0l-.008-.008a6.576,6.576,0,0,1,0-9.313L1.961,230a6.576,6.576,0,0,1,9.313,0l.008.008a6.636,6.636,0,0,1,1.584,2.543H39.681c5.4,0,9.568,1.567,12.563,4.014a23.973,23.973,0,0,1,2.988,3.25Zm-17.62,23.415h0v-.03a2.353,2.353,0,0,0-.684-1.584l-.008-.008a2.391,2.391,0,0,0-3.352,0l-.008.008a2.391,2.391,0,0,0,0,3.352l.008.008a2.391,2.391,0,0,0,3.352,0l.008-.008a2.36,2.36,0,0,0,.686-1.676v-.06ZM8.987,234.667h0a2.358,2.358,0,0,0-.686-1.676l-.008-.008a2.39,2.39,0,0,0-3.352,0l-.008.008a2.391,2.391,0,0,0,0,3.352l.008.008a2.391,2.391,0,0,0,3.352,0l.008-.008A2.36,2.36,0,0,0,8.987,234.667Z" transform="translate(-0.02 -220.272)" fill="none"/></g></g></svg>