<?xml version="1.0" encoding="utf-8"?>
<!-- Svg Vector Icons : http://www.onlinewebfonts.com/icon -->
<!DOCTYPE svg PUBLIC "-//W3C//DTD SVG 1.1//EN" "http://www.w3.org/Graphics/SVG/1.1/DTD/svg11.dtd">
<svg version="1.1" xmlns="http://www.w3.org/2000/svg" xmlns:xlink="http://www.w3.org/1999/xlink" x="0px" y="0px" viewBox="0 0 1000 1000" enable-background="new 0 0 1000 1000" xml:space="preserve">
<metadata> Svg Vector Icons : http://www.onlinewebfonts.com/icon </metadata>
<g><path d="M678,463.3l298.3-306.5c8.5,8.9,13.7,21.1,13.7,34.7v617.1c0,12.8-4.8,24.4-12.4,33.1L678,463.3L678,463.3z M25.3,155.4c8.1-7.8,18.8-12.7,30.6-12.7H944c11.9,0,22.6,4.9,30.7,12.7L500,548.7L25.3,155.4L25.3,155.4z M22.4,841.7c-7.6-8.7-12.4-20.3-12.4-33.1V191.4c0-13.6,5.3-25.8,13.7-34.7L322,463.3L22.4,841.7L22.4,841.7z M500,646.2l124.5-128l351,325.7c-8.2,8.3-19.3,13.4-31.5,13.4H55.9c-12.2,0-23.3-5.2-31.5-13.4l351-325.7L500,646.2L500,646.2z"/></g>
</svg>