<svg xmlns="http://www.w3.org/2000/svg" xmlns:xlink="http://www.w3.org/1999/xlink" width="409.5" height="552.559" viewBox="0 0 409.5 552.559"><defs><linearGradient id="a" x1="0.5" y1="0.849" x2="0.5" y2="0.959" gradientUnits="objectBoundingBox"><stop offset="0" stop-color="#3b5b9b"/><stop offset="0.252" stop-color="#3e5598"/><stop offset="0.586" stop-color="#494491"/><stop offset="0.966" stop-color="#5c2885"/><stop offset="1" stop-color="#5e2684"/></linearGradient><linearGradient id="b" x1="0.501" y1="0.693" x2="0.502" y2="0.989" gradientUnits="objectBoundingBox"><stop offset="0" stop-color="#3b5b9b"/><stop offset="1" stop-color="#071737"/></linearGradient><linearGradient id="c" x1="0.501" y1="0.693" x2="0.502" y2="0.982" xlink:href="#b"/><linearGradient id="d" x1="1.018" y1="1.051" x2="0.477" y2="0.346" gradientUnits="objectBoundingBox"><stop offset="0" stop-color="#4db58b"/><stop offset="1" stop-color="#008867"/></linearGradient><linearGradient id="e" x1="0.268" y1="0.5" x2="0.88" y2="0.5" gradientUnits="objectBoundingBox"><stop offset="0" stop-color="#5e2684"/><stop offset="1" stop-color="#542583"/></linearGradient><linearGradient id="f" x1="0.526" y1="0.299" x2="0.278" y2="0.958" gradientUnits="objectBoundingBox"><stop offset="0" stop-color="#4966a7"/><stop offset="1" stop-color="#2c4b88"/></linearGradient><linearGradient id="g" x1="0.325" y1="0.493" x2="0.802" y2="0.329" xlink:href="#f"/><linearGradient id="h" x1="0.659" y1="0.492" x2="0.323" y2="0.544" gradientUnits="objectBoundingBox"><stop offset="0" stop-color="#0fd79e"/><stop offset="0.294" stop-color="#0dce96"/><stop offset="0.752" stop-color="#09b881"/><stop offset="1" stop-color="#07aa74"/></linearGradient><linearGradient id="i" x1="0.268" y1="0.5" x2="0.88" y2="0.5" xlink:href="#e"/><linearGradient id="j" x1="-0.927" y1="0.5" x2="1.622" y2="0.5" gradientUnits="objectBoundingBox"><stop offset="0" stop-color="#fff"/><stop offset="1" stop-color="#b3b4b4"/></linearGradient><linearGradient id="k" x1="0.393" y1="0.568" x2="0.689" y2="0.405" gradientUnits="objectBoundingBox"><stop offset="0" stop-color="#071737"/><stop offset="1" stop-color="#172c58"/></linearGradient></defs><g transform="translate(-1281 -186.766)"><g transform="translate(0 -12)"><g transform="translate(1281 198.766)"><ellipse cx="204.75" cy="15.481" rx="204.75" ry="15.481" transform="translate(0 521.597)" fill="#c0cce4"/><g transform="translate(17.017 0)"><path d="M341.456,108.519a2.182,2.182,0,1,1,4.328,0V250.709a2.182,2.182,0,1,1-4.328,0Z" transform="translate(-155.467 86.209)" fill-rule="evenodd" fill="url(#a)"/><path d="M372.218,173.023a2.161,2.161,0,1,1,0,4.322H360.168a2.161,2.161,0,0,1-2.161-2.161c0-5.945-5.534-12.235-12.13-19.735-10.423-11.851-23.333-26.535-23.333-49.134a58.92,58.92,0,0,1,117.84,0c0,23.633-13.538,38.126-24.087,49.419-6.254,6.7-11.377,12.181-11.377,17.268v3.52a2.161,2.161,0,0,1-4.322,0V173c0-6.776,5.648-12.824,12.541-20.2,10.039-10.747,22.922-24.537,22.922-46.484a54.6,54.6,0,1,0-109.2,0c0,20.975,12.313,34.978,22.253,46.28,6.494,7.386,12.043,13.691,13.046,20.428Z" transform="translate(-193.311 -31.18)" fill="#425f9c" fill-rule="evenodd"/><path d="M345.779,120.613a2.161,2.161,0,1,1-4.322,0V72.2a2.161,2.161,0,1,1,4.322,0Z" transform="translate(-155.465 14.144)" fill="#425f9c" fill-rule="evenodd"/><path d="M338.406,97.345a2.161,2.161,0,0,1,0-4.322h26.728a2.161,2.161,0,1,1,0,4.322Z" transform="translate(-165.895 60.131)" fill="#425f9c" fill-rule="evenodd"/><path d="M342.176,93.023a2.161,2.161,0,0,1,0,4.322,3.493,3.493,0,0,0,0,6.987,2.161,2.161,0,0,1,0,4.322,7.815,7.815,0,1,1,0-15.63Z" transform="translate(-169.665 60.131)" fill="#425f9c" fill-rule="evenodd"/><path d="M347.622,88.334a2.161,2.161,0,1,1,4.322,0,11.4,11.4,0,0,1-11.407,11.407,2.161,2.161,0,0,1,0-4.322,7.07,7.07,0,0,0,7.086-7.086Z" transform="translate(-161.631 46.423)" fill="#425f9c" fill-rule="evenodd"/><path d="M347.312,104.152a2.161,2.161,0,1,1,0-4.322,8.054,8.054,0,0,0,8.049-8.049,2.161,2.161,0,0,1,4.322,0,12.367,12.367,0,0,1-12.371,12.37Z" transform="translate(-148.073 53.323)" fill="#425f9c" fill-rule="evenodd"/><path d="M347.94,65.722a8.643,8.643,0,1,1-6.113,2.533,8.617,8.617,0,0,1,6.113-2.533ZM351,71.31a4.317,4.317,0,1,0,0,6.119,4.329,4.329,0,0,0,0-6.119Z" transform="translate(-159.787 5.499)" fill="#425f9c" fill-rule="evenodd"/><path d="M338.406,108.652a2.161,2.161,0,0,1,0-4.322h9.985a2.161,2.161,0,0,1,0,4.322Z" transform="translate(-165.895 82.757)" fill="#425f9c" fill-rule="evenodd"/><path d="M369.686,96.792a2.159,2.159,0,1,1,0,4.319h-31.28a2.159,2.159,0,1,1,0-4.319Z" transform="translate(-165.895 67.673)" fill="#425f9c" fill-rule="evenodd"/><path d="M348.829,101.111a2.159,2.159,0,1,1,0-4.319,7.816,7.816,0,1,1,0,15.633,2.161,2.161,0,0,1,0-4.322,3.5,3.5,0,1,0,0-6.993Z" transform="translate(-145.038 67.673)" fill="#425f9c" fill-rule="evenodd"/><path d="M338.407,104.883a2.161,2.161,0,1,1,0-4.322h31.277a2.161,2.161,0,1,1,0,4.322Z" transform="translate(-165.893 75.215)" fill="#425f9c" fill-rule="evenodd"/><path d="M342.176,100.561a2.161,2.161,0,0,1,0,4.322,3.495,3.495,0,0,0,0,6.99,2.161,2.161,0,1,1,0,4.322,7.816,7.816,0,1,1,0-15.633Z" transform="translate(-169.665 75.215)" fill="#425f9c" fill-rule="evenodd"/><path d="M341.733,108.652a2.161,2.161,0,1,1,0-4.322,7.833,7.833,0,0,1,7.818,7.818,2.161,2.161,0,0,1-4.322,0,3.494,3.494,0,0,0-3.5-3.5Z" transform="translate(-159.237 82.757)" fill="#425f9c" fill-rule="evenodd"/><path d="M347.823,177.23a1.944,1.944,0,1,0,2.437-3.028c-1.131-.942-2.371-1.816-3.526-2.77-2.239-1.723-4.559,1.089-2.425,3.046,1.182.909,2.3,1.855,3.514,2.752Zm87.169-4.024c-1.846,1.384.228,4.718,2.563,3.46,1.08-.75,2.242-1.744,3.247-2.6,1.87-1.7-.735-4.832-2.839-3.253-.9.816-2,1.654-2.971,2.395ZM446,162.777c-1.446,1.591.885,4.5,2.932,3.136a2.416,2.416,0,0,0,.318-.291c.855-1.005,1.708-2.05,2.5-3.106a2.125,2.125,0,0,0-.444-2.845,2.014,2.014,0,0,0-2.926.15c-.771,1.008-1.561,1.99-2.383,2.956Zm8.565-12.563c-1.1,2.056,1.969,4.361,3.5,2.488a2.213,2.213,0,0,0,.174-.273c.633-1.188,1.227-2.383,1.8-3.6,1.014-2.368-2.527-4.34-3.736-2.095-.561,1.176-1.129,2.329-1.744,3.478Zm5.747-14.255c-.651,2.434,3.049,4.06,3.961,1.51.369-1.332.7-2.647,1.008-3.991.516-2.584-3.337-3.844-4.009-1.327-.291,1.279-.6,2.548-.96,3.808Zm2.557-15.411c-.156,2.317,3.361,3.421,4.045,1.023a2.654,2.654,0,0,0,.06-.39c.072-1.4.114-2.791.108-4.189,0-2.353-3.544-3.274-4.087-.741a2.445,2.445,0,0,0-.024.336c.009,1.317-.036,2.644-.1,3.961Zm-.927-15.927c.483,2.587,4.243,2.473,4.072-.078-.177-1.425-.552-3.025-.876-4.436-.711-2.662-4.511-2.188-4.006.5.315,1.32.579,2.671.81,4.009ZM457.338,89c.912,2.281,4.565,1.684,3.829-1.074a43.36,43.36,0,0,0-1.924-4.2c-1.221-2.44-4.862-1.1-3.634,1.534.6,1.248,1.182,2.467,1.729,3.742ZM449.1,74.645a2.217,2.217,0,0,0,2.461.828,1.94,1.94,0,0,0,.738-3.061c-.882-1.191-1.807-2.365-2.764-3.5-1.552-1.834-4.346-.372-3.37,1.9a2.512,2.512,0,0,0,.351.558c.891,1.068,1.756,2.155,2.584,3.274Zm-11.449-12.13c2.341,1.8,4.541-1.257,2.431-3.043-1.113-.954-2.323-1.876-3.5-2.755a1.926,1.926,0,0,0-2.683,2.755,2.659,2.659,0,0,0,.474.462c1.1.819,2.236,1.687,3.277,2.581Zm-13.886-9.072c2.338,1.089,3.886-1.87,1.867-3.424a2.3,2.3,0,0,0-.384-.234c-1.314-.651-2.635-1.257-3.985-1.834C418.688,46.918,417.418,50.5,420,51.7c1.254.5,2.557,1.137,3.769,1.738Zm-15.414-5.525c2.218.594,3.409-2.623.924-3.865a3.419,3.419,0,0,0-.408-.135c-1.407-.321-2.8-.591-4.222-.846-2.254-.423-3.088,2.743-.867,3.856a2.727,2.727,0,0,0,.615.2c1.329.225,2.644.5,3.958.792ZM392.419,46.1c2.581,0,2.374-3.928-.339-4.108-1.4-.024-2.884.03-4.286.111a1.8,1.8,0,0,0-1.72,1.945,2.324,2.324,0,0,0,2.383,2.161c1.317-.075,2.644-.108,3.961-.108ZM376.8,47.818c2.221-.444,1.717-4.06-.963-4.06a1.989,1.989,0,0,0-.33.045c-1.305.261-2.686.642-3.973,1-2.239.6-1.39,4.2,1.137,4.03a2.144,2.144,0,0,0,.363-.066c1.215-.342,2.53-.705,3.766-.951Zm-14.585,4.991c2.254-1.038.432-4.82-2.068-3.748-1.212.57-2.416,1.17-3.6,1.81-2.083,1.119-.381,4.622,2.053,3.751,1.2-.567,2.389-1.233,3.61-1.813ZM349.2,60.738a1.962,1.962,0,0,0,.429-2.518,2.173,2.173,0,0,0-3.136-.846c-1.056.813-2.08,1.648-3.1,2.509-1.582,1.441.063,4.063,2.065,3.634a1.794,1.794,0,0,0,.792-.393c.966-.822,1.945-1.615,2.95-2.386ZM338.211,71.181c1.474-1.621-.975-4.559-2.983-3.1a1.809,1.809,0,0,0-.27.255q-1.287,1.522-2.5,3.106c-1.455,1.945,1.513,4.58,3.217,2.872.864-.993,1.669-2.116,2.536-3.136Zm-8.553,12.566c1.071-1.993-1.894-4.439-3.565-2.4-.717,1.182-1.3,2.554-1.918,3.793-1.008,2.353,2.527,4.34,3.742,2.083.561-1.176,1.128-2.326,1.741-3.478Zm-5.726,14.261c.636-2.392-2.875-3.907-3.862-1.768a2.121,2.121,0,0,0-.111.294c-.366,1.317-.7,2.638-.993,3.973-.5,2.533,3.289,3.853,4.009,1.332.3-1.29.6-2.554.957-3.832Zm-2.521,15.432c.156-2.341-3.37-3.394-4.039-1.053a2.636,2.636,0,0,0-.066.417c-.075,1.39-.1,2.791-.1,4.187,0,2.4,3.586,3.241,4.084.75a2.361,2.361,0,0,0,.027-.333c-.006-1.317.024-2.65.093-3.967Zm.966,15.921a2.351,2.351,0,0,0-1.951-1.882,1.828,1.828,0,0,0-2.095,2.188c.249,1.408.528,2.821.864,4.208.711,2.668,4.508,2.185,4-.5-.315-1.326-.585-2.671-.822-4.012Zm4.643,15.621c-.8-1.993-3.932-1.882-3.932.456a2.26,2.26,0,0,0,.18.822c.582,1.353,1.194,2.671,1.849,3.991,1.224,2.452,4.865,1.1,3.637-1.522-.615-1.233-1.188-2.482-1.734-3.748Zm8.256,14.351a2.348,2.348,0,0,0-1.368-.891,1.9,1.9,0,0,0-1.834,3.121c.885,1.185,1.807,2.368,2.767,3.493a1.953,1.953,0,1,0,3.07-2.395C337,161.562,336.128,160.475,335.276,159.332Z" transform="translate(-203.993 -41.99)" fill="#fff" fill-rule="evenodd"/><path d="M325.806,114.036a2.161,2.161,0,0,1,4.322,0V297.63a2.161,2.161,0,0,1-4.322,0Z" transform="translate(-186.784 97.855)" fill-rule="evenodd" fill="url(#b)"/><path d="M320.406,108.637a2.161,2.161,0,0,1,0-4.322,24.852,24.852,0,0,1,24.852,24.852,2.161,2.161,0,0,1-4.322,0,20.528,20.528,0,0,0-20.53-20.53Z" transform="translate(-201.914 82.727)" fill="#425f9c" fill-rule="evenodd"/><path d="M321.9,102.155a8.643,8.643,0,1,1-6.113,2.533,8.618,8.618,0,0,1,6.113-2.533Zm3.055,5.585a4.34,4.34,0,0,0-6.116,0,4.325,4.325,0,1,0,6.116,0Z" transform="translate(-211.9 78.405)" fill="#425f9c" fill-rule="evenodd"/><path d="M308.853,119.679a2.161,2.161,0,1,1,0-4.322h34.464a2.161,2.161,0,0,1,0,4.322Z" transform="translate(-225.033 104.823)" fill="#425f9c" fill-rule="evenodd"/><path d="M295.415,106.241a2.161,2.161,0,0,1,4.322,0,31.682,31.682,0,0,0,31.685,31.685,2.161,2.161,0,0,1,0,4.322,36.005,36.005,0,0,1-36.007-36.007Z" transform="translate(-247.599 82.257)" fill="#425f9c" fill-rule="evenodd"/><path d="M297.577,87.657a4.324,4.324,0,1,0,1.266-3.058,4.32,4.32,0,0,0-1.266,3.058Zm-1.789,6.11A8.64,8.64,0,1,1,301.9,96.3,8.617,8.617,0,0,1,295.788,93.767Z" transform="translate(-251.921 32.098)" fill="#425f9c" fill-rule="evenodd"/><path d="M295.415,86.165a2.161,2.161,0,1,1,4.322,0v60.25a2.161,2.161,0,1,1-4.322,0Z" transform="translate(-247.599 42.083)" fill="#425f9c" fill-rule="evenodd"/><path d="M345.4,140.417a2.161,2.161,0,0,1-4.322,0,20.739,20.739,0,0,0-20.737-20.737,2.161,2.161,0,1,1,0-4.322A25.057,25.057,0,0,1,345.4,140.417Z" transform="translate(-202.052 104.825)" fill="#425f9c" fill-rule="evenodd"/><path d="M284.914,92.395a2.161,2.161,0,0,1,4.322,0A29.571,29.571,0,0,0,318.8,121.958a2.161,2.161,0,1,1,0,4.322,33.885,33.885,0,0,1-33.888-33.885Z" transform="translate(-268.612 54.55)" fill="#425f9c" fill-rule="evenodd"/><path d="M287.076,75.066a4.315,4.315,0,0,0,1.266,3.055,4.324,4.324,0,0,0,6.119-6.11,4.326,4.326,0,0,0-7.386,3.055Zm-1.786,6.107a8.626,8.626,0,1,1,6.107,2.536A8.589,8.589,0,0,1,285.29,81.173Z" transform="translate(-272.934 6.902)" fill="#425f9c" fill-rule="evenodd"/><path d="M284.914,73.575a2.161,2.161,0,1,1,4.322,0v56.48a2.161,2.161,0,1,1-4.322,0Z" transform="translate(-268.612 16.889)" fill="#425f9c" fill-rule="evenodd"/><path d="M329.329,91.689a2.161,2.161,0,1,1,4.322,0,36.006,36.006,0,0,1-36,36,2.161,2.161,0,1,1,0-4.322,31.682,31.682,0,0,0,31.682-31.682Z" transform="translate(-247.457 53.137)" fill="#425f9c" fill-rule="evenodd"/><path d="M321.889,93.18a8.648,8.648,0,1,1-2.533-6.11,8.616,8.616,0,0,1,2.533,6.11ZM316.3,96.235a4.318,4.318,0,1,0-3.055,1.266A4.309,4.309,0,0,0,316.3,96.235Z" transform="translate(-229.213 43.15)" fill="#425f9c" fill-rule="evenodd"/><path d="M294.507,125.095a2.161,2.161,0,1,1,0-4.322h46.634a2.161,2.161,0,1,1,0,4.322Z" transform="translate(-253.74 115.661)" fill="#425f9c" fill-rule="evenodd"/><path d="M297.427,145.624a2.161,2.161,0,1,1-4.322,0,24.847,24.847,0,0,1,24.852-24.852,2.161,2.161,0,0,1,0,4.322,20.529,20.529,0,0,0-20.53,20.53Z" transform="translate(-252.221 115.659)" fill="#425f9c" fill-rule="evenodd"/><path d="M290.945,137.646a8.643,8.643,0,1,1,2.533,6.113,8.615,8.615,0,0,1-2.533-6.113Zm5.582-3.058a4.34,4.34,0,0,0-1.26,3.058,4.293,4.293,0,0,0,1.257,3.055,4.324,4.324,0,1,0,6.119-6.11,4.276,4.276,0,0,0-3.055-1.267A4.327,4.327,0,0,0,296.527,134.588Z" transform="translate(-256.544 132.129)" fill="#425f9c" fill-rule="evenodd"/><path d="M334.9,145.624a2.161,2.161,0,1,1-4.322,0,20.529,20.529,0,0,0-20.53-20.53,2.161,2.161,0,0,1,0-4.322A24.852,24.852,0,0,1,334.9,145.624Z" transform="translate(-222.645 115.659)" fill="#425f9c" fill-rule="evenodd"/><path d="M315.446,130.494a2.161,2.161,0,1,1,4.322,0V155.16a2.161,2.161,0,1,1-4.322,0Z" transform="translate(-207.515 130.789)" fill="#425f9c" fill-rule="evenodd"/><path d="M364.943,113.594c0-.828.975-1.5,2.176-1.5s2.173.669,2.173,1.5v29.714c0,.828-.972,1.5-2.173,1.5s-2.176-.672-2.176-1.5Z" transform="translate(-108.468 98.297)" fill="#425f9c" fill-rule="evenodd"/><path d="M389.8,104.315a2.161,2.161,0,1,1,0,4.322,20.534,20.534,0,0,0-20.53,20.53,2.161,2.161,0,0,1-4.322,0A24.853,24.853,0,0,1,389.8,104.315Z" transform="translate(-108.46 82.727)" fill="#425f9c" fill-rule="evenodd"/><path d="M413.293,104.315a2.161,2.161,0,0,1,0,4.322H374.669a2.161,2.161,0,0,1,0-4.322Z" transform="translate(-93.33 82.727)" fill="#425f9c" fill-rule="evenodd"/><path d="M407.944,106.241a2.161,2.161,0,1,1,4.321,0,36.006,36.006,0,0,1-36,36.007,2.161,2.161,0,1,1,0-4.322,31.682,31.682,0,0,0,31.682-31.685Z" transform="translate(-90.142 82.257)" fill="#425f9c" fill-rule="evenodd"/><path d="M400.5,87.657a8.643,8.643,0,1,1-2.533-6.113,8.617,8.617,0,0,1,2.533,6.113Zm-5.588,3.055a4.325,4.325,0,1,0-3.055,1.263A4.307,4.307,0,0,0,394.916,90.712Z" transform="translate(-71.898 32.098)" fill="#425f9c" fill-rule="evenodd"/><path d="M385.378,86.165a2.161,2.161,0,0,1,4.322,0v60.25a2.161,2.161,0,0,1-4.322,0Z" transform="translate(-67.576 42.083)" fill="#425f9c" fill-rule="evenodd"/><path d="M361.776,139.178a2.161,2.161,0,1,1-4.322,0,23.741,23.741,0,0,1,6.978-16.836l.006-.009a23.744,23.744,0,0,1,16.836-6.975,2.161,2.161,0,0,1,0,4.322,19.478,19.478,0,0,0-19.5,19.5Z" transform="translate(-123.454 104.825)" fill="#425f9c" fill-rule="evenodd"/><path d="M392.41,67.058a8.638,8.638,0,1,1-2.53-6.11,8.605,8.605,0,0,1,2.53,6.11Zm-5.585,3.061a4.326,4.326,0,1,0-3.058,1.263A4.316,4.316,0,0,0,386.825,70.119Z" transform="translate(-88.095 -9.117)" fill="#425f9c" fill-rule="evenodd"/><path d="M377.284,65.569a2.161,2.161,0,1,1,4.322,0v67.644a2.161,2.161,0,1,1-4.322,0Z" transform="translate(-83.773 0.869)" fill="#425f9c" fill-rule="evenodd"/><path d="M394.161,115.368c.846,0,1.533.954,1.533,2.131s-.687,2.131-1.533,2.131H366.692c-.849,0-1.536-.954-1.536-2.131s.687-2.131,1.536-2.131Z" transform="translate(-108.042 104.845)" fill="#425f9c" fill-rule="evenodd"/><path d="M357.459,125.27c0-1.579.96-2.86,2.146-2.86s2.143,1.281,2.143,2.86V276.551c0,1.579-.96,2.857-2.143,2.857s-2.146-1.278-2.146-2.857Z" transform="translate(-123.444 118.936)" fill-rule="evenodd" fill="url(#c)"/><path d="M377.284,88.109a2.161,2.161,0,1,1,4.322,0,22.132,22.132,0,0,0,22.13,22.13,2.161,2.161,0,1,1,0,4.322,26.451,26.451,0,0,1-26.452-26.452Z" transform="translate(-83.773 45.973)" fill="#425f9c" fill-rule="evenodd"/><path d="M396.253,74.261a4.324,4.324,0,1,0,1.266-3.055,4.3,4.3,0,0,0-1.266,3.055Zm-1.789,6.11a8.64,8.64,0,1,1,6.11,2.533A8.611,8.611,0,0,1,394.464,80.371Z" transform="translate(-54.463 5.291)" fill="#425f9c" fill-rule="evenodd"/><path d="M394.092,72.77a2.161,2.161,0,1,1,4.322,0v75.006a2.161,2.161,0,1,1-4.322,0Z" transform="translate(-50.138 15.279)" fill="#425f9c" fill-rule="evenodd"/><path d="M411.529,97.763a2.161,2.161,0,1,1,4.322,0,28.316,28.316,0,0,1-28.312,28.309,2.161,2.161,0,1,1,0-4.322,23.992,23.992,0,0,0,23.991-23.988Z" transform="translate(-67.576 65.291)" fill="#425f9c" fill-rule="evenodd"/><path d="M281.642,112.229a2.161,2.161,0,0,1,4.322,0,29.965,29.965,0,0,0,29.963,29.966,2.161,2.161,0,1,1,0,4.322,34.289,34.289,0,0,1-34.284-34.287Z" transform="translate(-275.16 94.239)" fill="#425f9c" fill-rule="evenodd"/><path d="M283.8,113.72a4.324,4.324,0,1,0,1.266-3.055,4.3,4.3,0,0,0-1.266,3.055Zm-1.792,6.113a8.647,8.647,0,1,1,6.113,2.53A8.621,8.621,0,0,1,282.012,119.833Z" transform="translate(-279.482 84.252)" fill="#425f9c" fill-rule="evenodd"/><path d="M429.465,168.561a2.161,2.161,0,0,1-4.322,0,48.875,48.875,0,0,0-48.881-48.882,2.161,2.161,0,1,1,0-4.322,53.2,53.2,0,0,1,53.2,53.2Z" transform="translate(-90.142 104.825)" fill="#425f9c" fill-rule="evenodd"/><path d="M401.914,141.679a4.314,4.314,0,1,0-1.264,3.058,4.317,4.317,0,0,0,1.264-3.058Zm1.792-6.11a8.64,8.64,0,1,1-6.113-2.533A8.614,8.614,0,0,1,403.705,135.569Z" transform="translate(-60.43 140.2)" fill="#425f9c" fill-rule="evenodd"/><path d="M443.926,105.926a2.161,2.161,0,1,1,4.322,0A58.179,58.179,0,0,1,390.069,164.1a2.161,2.161,0,0,1,0-4.322,53.855,53.855,0,0,0,53.857-53.857Z" transform="translate(-62.513 81.626)" fill="#425f9c" fill-rule="evenodd"/><path d="M421.7,107.418a8.643,8.643,0,1,1-2.533-6.113,8.617,8.617,0,0,1,2.533,6.113Zm-5.588,3.055a4.318,4.318,0,1,0-3.055,1.266A4.32,4.32,0,0,0,416.112,110.473Z" transform="translate(-29.483 71.641)" fill="#425f9c" fill-rule="evenodd"/><path d="M386.039,102.862a8.638,8.638,0,1,1-2.53-6.113,8.615,8.615,0,0,1,2.53,6.113Zm-5.585,3.055a4.322,4.322,0,1,0-3.058,1.266A4.318,4.318,0,0,0,380.454,105.917Z" transform="translate(-100.844 62.524)" fill="#425f9c" fill-rule="evenodd"/><path d="M370.913,100.684a2.161,2.161,0,0,1,4.322,0v17.382a2.161,2.161,0,0,1-4.322,0Z" transform="translate(-96.521 71.137)" fill="#425f9c" fill-rule="evenodd"/><g transform="translate(4.559 343.379)"><path d="M369.464,169.852c7.944,4.73,13.379,2.248,13.379,15.66,0,7.9-3.82,20.251-9.736,29.071H343.4c-5.915-8.82-9.736-21.17-9.736-29.071,0-13.412,5.435-10.93,13.379-15.66a38.091,38.091,0,0,0,22.418,0Z" transform="translate(-175.612 -129.508)" fill="#39548f" fill-rule="evenodd"/><rect width="63.163" height="36.694" rx="0.701" transform="translate(151.738 52.108)" stroke-width="4" stroke="#001d3d" stroke-linecap="round" stroke-linejoin="round" fill="#001d3d"/><path d="M323.462,214.069a2.1,2.1,0,0,1-.747-.135,2.157,2.157,0,0,1-1.278-2.773l13.517-36.7a2.161,2.161,0,0,1,4.054,1.5L325.49,212.656A2.162,2.162,0,0,1,323.462,214.069Z" transform="translate(-200.357 -123.106)" fill="#001d3d"/><path d="M351.093,189.6H309.654a2.162,2.162,0,0,1,0-4.325h41.439a2.162,2.162,0,0,1,0,4.325Z" transform="translate(-227.988 -98.639)" fill="#001d3d"/><path d="M298.687,190.189c56.441,6.041,57.347,5.366,68.112,63.092l-12.454,2.359c-11.062-46.343-18.538-47.69-69.511-46.037Z" transform="translate(-273.331 -88.812)" fill-rule="evenodd" fill="url(#d)"/><path d="M281.066,198.78c-.006,4.55,4.355,12.418,16.662,12.367,11.161-.045,28.117-2.47,33.012,6.215s-14.288,29.447-14.288,29.447l9.225,7.05s27.547-24.207,24.021-41.9-45.9-21.809-45.9-21.809Z" transform="translate(-280.871 -88.892)" fill="#0fd79e" fill-rule="evenodd"/><path d="M312.485,167.77c-5.975,5.9-30.584,7.287-31.484,81.164,14.405,4.3,14.9-13.076,29.66-13.076.477-13.439,13.769-30.878,14.273-44.683,1.57-4.105-1.666-17.6-2.911-17.4A22.593,22.593,0,0,1,312.485,167.77Z" transform="translate(-281.001 -133.674)" fill-rule="evenodd" fill="url(#e)"/><path d="M309.1,217.345c3.01.975,7.1,2.149,9.988,1.342,2.737-.765,1.507-3.877,4.25-3.877,5.615,7.125,15.831,3.742,15.831,9.744H308.155C308.074,221.324,307.828,219.575,309.1,217.345Z" transform="translate(-226.811 -39.545)" fill="#001d3d" fill-rule="evenodd"/><line x2="29.438" transform="translate(82.193 187.595)" fill="none" stroke="#001d3d" stroke-linecap="round" stroke-miterlimit="22.926" stroke-width="1.5"/><path d="M289.645,183.147c1.168,2.668,9.354,28.069,62.93,30.548l2.08-7.908c-27.22-3.82-40-8.874-48.677-28.828C300.893,165.267,285.4,173.442,289.645,183.147Z" transform="translate(-265.159 -126.816)" fill="#702fad" fill-rule="evenodd"/><path d="M293.664,211.284c1.783,2.614,4.3,6.047,7.077,7.173,2.632,1.068,3.565-2.143,5.732-.465-1.083,12.265,9.48,7.875,7.8,14.543-12.091,1.125-17.358-10.792-25.764-16.131C290.417,213.8,291.293,212.268,293.664,211.284Z" transform="translate(-265.985 -46.599)" fill="#001d3d" fill-rule="evenodd"/><path d="M288.281,213.714c8.061,8.514,16.047,17.736,25.2,16.113" transform="translate(-266.433 -41.736)" fill="none" stroke="#001d3d" stroke-linecap="round" stroke-miterlimit="22.926" stroke-width="1.5" fill-rule="evenodd"/><path d="M375.3,246.228l9.865,1.945L394.718,225,413.151,207.8l33.96,5.582c7.734-.555,13.7-3.892,12.52-18.55,0,0-61.366-8.727-68.908-3.889C383.521,195.558,375.3,246.228,375.3,246.228Z" transform="translate(-92.299 -90.234)" fill-rule="evenodd" fill="url(#f)"/><path d="M408.514,248.152l-10.42.5s-19.45-38.891-16.95-47.783,15.24-5.348,15.24-5.348l39.479,7.164c-10.807,3.529-38.543,1.657-38.24,3.22C400.225,219.39,405.207,233.252,408.514,248.152Z" transform="translate(-81.051 -79.539)" fill-rule="evenodd" fill="url(#g)"/><path d="M398.007,214.461c-3,.465-7.068.945-9.679-.261-2.476-1.146-.834-3.907-3.436-4.331-6.419,5.9-15.588,1.119-16.509,6.809l29.414,4.763C398.37,218.392,398.871,216.772,398.007,214.461Z" transform="translate(-106.143 -49.431)" fill="#59228d" fill-rule="evenodd"/><line x1="27.981" y1="4.53" transform="translate(262.392 169.775)" fill="none" stroke="#39548f" stroke-linecap="round" stroke-miterlimit="22.926" stroke-width="1.5"/><path d="M411.425,217.326c-3,.975-7.092,2.146-9.97,1.338-2.731-.762-1.5-3.868-4.244-3.868-5.6,7.113-15.8,3.733-15.8,9.723H412.37C412.451,221.3,412.694,219.553,411.425,217.326Z" transform="translate(-80.079 -39.571)" fill="#59228d" fill-rule="evenodd"/><line x1="29.386" transform="translate(302.055 187.532)" fill="none" stroke="#39548f" stroke-linecap="round" stroke-miterlimit="22.926" stroke-width="1.5"/><path d="M401.353,167.531c5.963,5.891,30.986,8.187,31.883,81.941-14.381,4.292-14.876-13.055-29.609-13.055-.477-13.415-13.745-30.824-14.252-44.608-.123-5.24-.027-10.21,2.128-13.025C394.694,176.066,398.091,170.964,401.353,167.531Z" transform="translate(-64.203 -134.152)" fill-rule="evenodd" fill="url(#h)"/><path d="M432.573,180.977c-6.2,33.1-41.676,43.744-55.931,9.543l6.3-4.907c4.376,8.745,11.9,15.708,19.4,14.468,10.252-1.69,10.726-12.412,15.555-23.519C422.976,164.894,433.443,176.331,432.573,180.977Z" transform="translate(-89.616 -126.252)" fill="#0fd79e" fill-rule="evenodd"/><path d="M292.533,179.86c6.206.537,17.826-7.206,26.74-10.81,0,0-5.408-11-12.413-12.112s-13.85,1.591-15.921,5.891S292.533,179.86,292.533,179.86Z" transform="translate(-262.381 -155.854)" fill-rule="evenodd" fill="url(#i)"/><path d="M373.136,214.069a2.162,2.162,0,0,1-2.029-1.413l-13.52-36.694a2.163,2.163,0,0,1,4.058-1.5l13.517,36.7a2.157,2.157,0,0,1-1.279,2.773A2.1,2.1,0,0,1,373.136,214.069Z" transform="translate(-128.014 -123.106)" fill="#001d3d"/><path d="M405.555,189.6H364.12a2.162,2.162,0,0,1,0-4.325h41.436a2.162,2.162,0,0,1,0,4.325Z" transform="translate(-118.998 -98.639)" fill="#001d3d"/><rect width="12.868" height="20.173" transform="translate(265.394 43.668)" fill="url(#j)"/><path d="M373.722,182.695a5.381,5.381,0,1,0,0-10.762" transform="translate(-95.459 -125.343)" fill="none" stroke="#989998" stroke-miterlimit="38.202" stroke-width="0.72" fill-rule="evenodd"/><path d="M341.609,226.593h13.856s.2-4.316-2.341-6.353c-.909-.726-.312-2.785-1.083-3.5-1.927-1.774-5.513-1.7-7.152-.084-.939.924-.393,2.974-.894,3.346C341.7,221.713,341.612,224.519,341.609,226.593Z" transform="translate(-159.72 -38.299)" fill="#39548f" fill-rule="evenodd"/><path d="M336.278,181.769c0,3.8,3.985,7.494,10.27,7.4-2.131-4.454-3.976-10.981-2.17-13.958,2.74-4.511,9.426-4.829,16.626-10.465,3.124,1.447,2.962,20.032-.546,24.558,6.152-.609,10.093-3.877,11.224-7.3-2.764,1.624-4.577,1.852-4.547.822.09-3.244,5.438-21.728-4.55-21.254-3.169-5.768-13.577-7.467-20.365-1.131s-1.494,21.974-1.494,21.974C341.248,183.659,337.752,184.287,336.278,181.769Z" transform="translate(-170.387 -156.409)" fill="#702fad" fill-rule="evenodd"/><path d="M381.936,164.118c-1.348,4.187,3.274,7.887,8.676,4.994,4.129-2.212,6.569.024,7.169,2.236l1.681,6.221,3.106-.909c2.074-5.732,7.677-5.738,9.652,5.6.222,1.29,1.987-.2,2.389,1.356,0,0,1.293-7.713,1.017-11.41-1.161-15.567-15.267-20.524-27.916-9.715C386.078,164.043,383.749,165.286,381.936,164.118Z" transform="translate(-79.494 -155.82)" fill="#001d3d" fill-rule="evenodd"/><path d="M398.074,245.745l-7.554,3.075L373.5,225.564,357.71,212.485l-10.525.177c-7.731-.569-18.313-6.3-11.434-20.632,0,0,34.2-5.962,41.739-1.055C384.7,195.665,398.074,245.745,398.074,245.745Z" transform="translate(-175.89 -89.994)" fill-rule="evenodd" fill="url(#k)"/><path d="M345.567,251.758l7.968.519c-.138-12.65,8.418-40.659,7.146-49.857-1.242-8.946-14.582-11.458-17.832-1.555C337.788,216.276,345.627,236.11,345.567,251.758Z" transform="translate(-160.646 -80.2)" fill="#001d3d" fill-rule="evenodd"/><path d="M353.011,213.9c3,.462,4.5,1.342,7.113.138,2.476-1.146.834-3.913,3.436-4.333,6.416,5.894,15.882,1.086,16.806,6.779-5.777,2.7-10.744,2.068-16.179,2.9-4.9.753-7.839,1.7-10.966,1.491C352.648,217.832,352.147,216.208,353.011,213.9Z" transform="translate(-137.834 -49.759)" fill="#39548f" fill-rule="evenodd"/><path d="M338.437,162.613l8.6.432s.777,2.743-.2,4.571C345.045,170.965,338.278,169.584,338.437,162.613Z" transform="translate(-166.073 -143.993)" fill="none" stroke="#001d3d" stroke-linecap="round" stroke-linejoin="round" stroke-width="1.5" fill-rule="evenodd"/><path d="M351.433,162.622l-8.6.381s-.792,2.74.174,4.574C344.776,170.935,351.55,169.594,351.433,162.622Z" transform="translate(-157.89 -143.975)" fill="none" stroke="#001d3d" stroke-linecap="round" stroke-linejoin="round" stroke-width="1.5" fill-rule="evenodd"/><path d="M341.355,163.611a3.3,3.3,0,0,1,3.631,0" transform="translate(-160.228 -143.086)" fill="none" stroke="#001d3d" stroke-miterlimit="22.926" stroke-width="1.5" fill-rule="evenodd"/><line x2="232.716" transform="translate(68.814 94.82)" fill="none" stroke="#001d3d" stroke-width="3"/></g><path d="M359.547,148.789a2.161,2.161,0,0,1,0-4.322,20.528,20.528,0,0,0,20.53-20.53,2.161,2.161,0,0,1,4.322,0,24.847,24.847,0,0,1-24.852,24.852Z" transform="translate(-123.59 117.668)" fill="#425f9c" fill-rule="evenodd"/><path d="M315.446,138.713a2.161,2.161,0,0,1,4.322,0,20.529,20.529,0,0,0,20.527,20.53,2.159,2.159,0,1,1,0,4.319,24.847,24.847,0,0,1-24.849-24.849Z" transform="translate(-207.515 147.236)" fill="#425f9c" fill-rule="evenodd"/><path d="M324.524,148.467c-.66,0-1.2-.975-1.2-2.179s.537-2.182,1.2-2.182h39.431c.66,0,1.2.975,1.2,2.182s-.537,2.179-1.2,2.179Z" transform="translate(-191.745 162.352)" fill="#425f9c" fill-rule="evenodd"/><path d="M345.779,151.176a2.161,2.161,0,1,1-4.322,0A21.84,21.84,0,0,1,363.3,129.337a2.161,2.161,0,1,1,0,4.322,17.516,17.516,0,0,0-17.517,17.517Z" transform="translate(-155.465 132.798)" fill="#425f9c" fill-rule="evenodd"/><path d="M356.408,162.215a2.161,2.161,0,1,1-4.322,0,13.734,13.734,0,0,0-4.027-9.745l-.009-.009a13.734,13.734,0,0,0-9.745-4.027,2.161,2.161,0,1,1,0-4.322,18.045,18.045,0,0,1,12.791,5.3l.009.006A18.053,18.053,0,0,1,356.408,162.215Z" transform="translate(-166.095 162.366)" fill="#425f9c" fill-rule="evenodd"/><path d="M349.931,133.692c-.663,0-1.2-.978-1.2-2.182s.537-2.179,1.2-2.179h26.935c.663,0,1.2.975,1.2,2.179s-.537,2.182-1.2,2.182Z" transform="translate(-140.909 132.786)" fill="#425f9c" fill-rule="evenodd"/></g></g></g></g></svg>