<svg xmlns="http://www.w3.org/2000/svg" width="111.249" height="101.936" viewBox="0 0 111.249 101.936">
  <g id="Grupo_240" data-name="Grupo 240" transform="translate(-946.017 -335.716)">
    <path id="Trazado_381" data-name="Trazado 381" stroke="#666" d="M1056.265,429.381V343.989a7.292,7.292,0,0,0-7.27-7.273H954.287a7.291,7.291,0,0,0-7.27,7.273V366.1m78.52,70.553H1049a7.29,7.29,0,0,0,7.27-7.27" fill="none" transform="translate(0)" stroke-linecap="square" stroke-miterlimit="22.926" stroke-width="2" stroke-dasharray="1.2 3.6" fill-rule="evenodd"/>
    <rect id="Rectángulo_141" data-name="Rectángulo 141" width="63.607" height="57.705" rx="3.36" transform="translate(947.017 378.947)" fill="#837dbd" stroke="#666" stroke-miterlimit="22.926" stroke-width="2"/>
    <path id="Trazado_382" data-name="Trazado 382" stroke="#666" d="M954.3,347.183h70.614a7.309,7.309,0,0,1,7.288,7.29V417.18a7.309,7.309,0,0,1-7.288,7.29h-23.529m-54.372-48.66V354.473a7.309,7.309,0,0,1,7.288-7.29" fill="none" transform="translate(0 12.182)" stroke-linecap="square" stroke-miterlimit="22.926" stroke-width="2" stroke-dasharray="1.2 3.6" fill-rule="evenodd"/>
  </g>
</svg>
