<svg xmlns="http://www.w3.org/2000/svg" xmlns:xlink="http://www.w3.org/1999/xlink" width="183" height="183" viewBox="0 0 183 183"><defs><linearGradient id="a" x1="0.268" y1="0.669" x2="0.835" y2="0.06" gradientUnits="objectBoundingBox"><stop offset="0" stop-color="#5e2483"/><stop offset="1" stop-color="#48b48b"/></linearGradient></defs><g transform="translate(-527.436 -132.24)"><path d="M90,0A90,90,0,1,1,0,90,90,90,0,0,1,90,0Z" transform="translate(528.936 133.74)" fill="none" stroke="#666" stroke-width="3"/><path d="M667.609,186.787v61.336a3.412,3.412,0,0,1-3.448,3.354H573.367a3.412,3.412,0,0,1-3.448-3.354V186.787a3.412,3.412,0,0,1,3.448-3.354h90.794a3.412,3.412,0,0,1,3.448,3.354Zm-44.691,9.625v-1.853a2.849,2.849,0,0,0-2.879-2.8H617.49a2.849,2.849,0,0,0-2.88,2.8v1.853a18.046,18.046,0,0,0-5.2,2.1l-1.348-1.311a2.945,2.945,0,0,0-4.073,0l-1.8,1.753a2.754,2.754,0,0,0,0,3.961l1.348,1.312a17.013,17.013,0,0,0-2.156,5.058h-1.905a2.849,2.849,0,0,0-2.879,2.8v2.479a2.849,2.849,0,0,0,2.879,2.8h1.905a17.02,17.02,0,0,0,2.155,5.059l-1.347,1.311a2.754,2.754,0,0,0,0,3.961l1.8,1.753a2.944,2.944,0,0,0,4.072,0l1.35-1.311a18.04,18.04,0,0,0,5.2,2.1v1.854a2.849,2.849,0,0,0,2.88,2.8h2.548a2.849,2.849,0,0,0,2.879-2.8v-1.853a18.04,18.04,0,0,0,5.2-2.1l1.347,1.311a2.946,2.946,0,0,0,4.073,0l1.8-1.753a2.755,2.755,0,0,0,0-3.961l-1.349-1.312a17.024,17.024,0,0,0,2.156-5.058h1.906a2.85,2.85,0,0,0,2.88-2.8v-2.479a2.849,2.849,0,0,0-2.88-2.8h-1.9a17.043,17.043,0,0,0-2.156-5.059l1.347-1.311a2.756,2.756,0,0,0,0-3.962l-1.8-1.752a2.945,2.945,0,0,0-4.073,0l-1.348,1.311a18.037,18.037,0,0,0-5.2-2.1Zm-4.153,4.617A12.3,12.3,0,1,0,631.4,213.323a12.469,12.469,0,0,0-12.637-12.293ZM639.658,261.9v2.538H597.869V261.9c12.137,0,13.964-4.237,13.964-7.625h13.861c0,3.388,1.981,7.625,13.964,7.625Zm-20.895-19.132a2.735,2.735,0,1,0,2.811,2.734,2.774,2.774,0,0,0-2.811-2.734Zm-45-55.744v52.605h89.111V187.02Z" transform="translate(0.234 1.883)" fill-rule="evenodd" fill="url(#a)"/></g></svg>