<svg xmlns="http://www.w3.org/2000/svg" xmlns:xlink="http://www.w3.org/1999/xlink" width="133" height="133" viewBox="0 0 133 133"><defs><linearGradient id="a" x1="0.268" y1="0.669" x2="0.835" y2="0.06" gradientUnits="objectBoundingBox"><stop offset="0" stop-color="#5e2483"/><stop offset="1" stop-color="#48b48b"/></linearGradient></defs><g transform="translate(-527.436 -132.24)"><path d="M65,0A65,65,0,1,1,0,65,65,65,0,0,1,65,0Z" transform="translate(528.936 133.74)" fill="#fff" stroke="#666" stroke-width="3"/><g transform="translate(556.734 169.925)"><path d="M644.321,186.059v48.025a2.634,2.634,0,0,1-2.626,2.626h-69.15a2.634,2.634,0,0,1-2.626-2.626V186.059a2.634,2.634,0,0,1,2.626-2.626H641.7a2.634,2.634,0,0,1,2.626,2.626Zm-21.288,58.809v1.987H591.206v-1.987c9.244,0,10.635-3.318,10.635-5.97H612.4c0,2.653,1.508,5.97,10.635,5.97Zm-50.19-58.627v44.353h67.869V186.241Z" transform="translate(-569.919 -183.433)" fill-rule="evenodd" fill="url(#a)"/><g transform="translate(11.616 14.321)"><line x2="10.771" y2="10.771" transform="translate(0 10.771)" fill="none" stroke="#5c3584" stroke-linecap="round" stroke-width="4"/><line y1="10.771" x2="10.771" fill="none" stroke="#575385" stroke-linecap="round" stroke-width="4"/><line x1="10.771" y2="10.771" transform="translate(40.4 10.771)" fill="none" stroke="#546887" stroke-linecap="round" stroke-width="4"/><line x1="10.771" y1="10.771" transform="translate(40.4)" fill="none" stroke="#4f8488" stroke-linecap="round" stroke-width="4"/><line x1="10.699" y2="21.399" transform="translate(20.236 0.072)" fill="none" stroke="#536f87" stroke-linecap="round" stroke-width="4"/></g></g></g></svg>