<svg xmlns="http://www.w3.org/2000/svg" width="111.317" height="102.841" viewBox="0 0 111.317 102.841">
  <g id="Grupo_150" data-name="Grupo 150" transform="translate(-264.438 -436.858)">
    <path id="Trazado_322" data-name="Trazado 322" stroke="#666" d="M284.573,509.262c-10.568,0-19.135-9.116-19.135-20.362,0-9.85,6.572-18.065,15.3-19.953.128-11.128,8.644-20.108,19.132-20.108a18.211,18.211,0,0,1,10.109,3.072,25.063,25.063,0,0,1,22.192-14.053c13.939,0,25.239,12.025,25.239,26.86a28.981,28.981,0,0,1-.153,2.969c9.835,1.119,17.495,9.965,17.495,20.713,0,11.532-8.8,20.834-19.62,20.834l-16.676.028m-36.726,0H284.573" fill="none" transform="translate(0 0)" stroke-linecap="round" stroke-linejoin="round" stroke-width="2" fill-rule="evenodd"/>
    <path id="Trazado_323" data-name="Trazado 323" stroke="#666" d="M309.316,453.32l20.332,26.822H318.934l.548,41.607c0,10.1-19.237,10.108-19.237,0l-.548-41.607H288.984Z" fill="#837dbd" transform="translate(10.782 9.369)" stroke-linecap="round" stroke-linejoin="round" stroke-width="2" fill-rule="evenodd"/>
  </g>
</svg>
