<svg xmlns="http://www.w3.org/2000/svg" xmlns:xlink="http://www.w3.org/1999/xlink" width="1452.417" height="399.427" viewBox="0 0 1452.417 399.427"><defs><clipPath id="a"><path d="M277.083,358.609l-11.769,11.769,15.1,3.329-3.327-15.1Zm-5.885,5.884,1.664,7.55,5.884-5.884" transform="translate(-265.314 -358.609)" fill="none" clip-rule="evenodd"/></clipPath><clipPath id="b"><rect width="22.785" height="92.642" transform="matrix(0.707, -0.707, 0.707, 0.707, 0, 16.111)" fill="none"/></clipPath><clipPath id="c"><path d="M233.478,366.627c4.434-6.908,13.524-18.119,23.23-29.4l13.27,13.27c-11.264,9.69-22.466,18.774-29.372,23.21l-.038-.063-.039-.065-.014-.024-.024-.039-.041-.065-.039-.063-.008-.012-.032-.053-.04-.063-.041-.063v0l-.04-.063-.043-.065-.032-.049-.008-.014-.085-.128-.026-.036-.016-.026-.043-.063-.045-.063-.016-.026-.028-.038-.043-.063-.045-.063-.01-.012-.036-.051-.045-.065-.045-.063-.047-.063-.047-.063-.036-.051-.01-.012-.047-.063-.047-.063-.03-.039-.018-.024-.049-.063-.049-.063-.018-.026-.03-.036-.049-.063-.051-.063-.008-.012-.04-.051-.051-.063-.051-.063h0l-.144-.174-.01-.012-.105-.126-.03-.036-.02-.026-.055-.063-.053-.061-.022-.024-.032-.038-.053-.061-.055-.063-.012-.012-.045-.051-.053-.061-.057-.063-.057-.061-.055-.063-.047-.049-.012-.012-.057-.061-.057-.063-.034-.036-.024-.024-.059-.061-.057-.063-.024-.024-.034-.036-.061-.061-.059-.061-.012-.012-.049-.049-.061-.063-.061-.061-.059-.059-.061-.061-.043-.041-.018-.016-.059-.059-.061-.059-.024-.024-.036-.034-.061-.057-.059-.059-.008,0-.053-.051-.061-.057-.051-.047-.01-.01-.061-.055-.061-.057-.03-.026-.03-.028-.061-.053-.063-.055-.012-.012-.049-.043-.061-.053-.055-.049-.006,0-.061-.053-.063-.053-.036-.032-.024-.018-.061-.053-.063-.051-.018-.016-.043-.034-.061-.051-.063-.049,0,0-.059-.049-.063-.049-.045-.036-.016-.012-.063-.049-.061-.049-.028-.02-.034-.026-.063-.049-.061-.047-.008-.006-.055-.041-.063-.047-.053-.039-.01-.006-.063-.047-.061-.045-.034-.024-.028-.02-.063-.045-.063-.045-.014-.01-.049-.034-.063-.043-.059-.041,0,0-.063-.043-.063-.043-.041-.028-.022-.014-.063-.04-.063-.041-.022-.016-.043-.024-.063-.043-.063-.039,0,0-.061-.036-.063-.041-.255-.152-.063-.039-.063-.039-.01,0-.055-.032Z" transform="translate(-233.478 -337.227)" fill="none" clip-rule="evenodd"/></clipPath><clipPath id="d"><path d="M244.942,360.214c29.487-36.976,52.612-49.378,57.568-44.3,4.782,4.9-7.293,26.547-44.3,57.568Z" transform="translate(-244.942 -314.83)" fill="none" clip-rule="evenodd"/></clipPath></defs><g transform="translate(-223.583 -2099)"><g transform="translate(620.236 2264)"><g transform="translate(0 0)"><path d="M108.205,0A108.205,108.205,0,1,1,0,108.205,108.205,108.205,0,0,1,108.205,0Z" transform="translate(16.016 16.016)" fill="#fff" stroke="#666" stroke-linecap="round" stroke-width="4"/></g><g transform="translate(69.978 72.18)"><g transform="translate(2.59 0.087)"><path d="M277.083,358.609l-11.769,11.769,15.1,3.329-3.327-15.1Zm-5.885,5.884,1.664,7.55,5.884-5.884" transform="translate(-176.701 -269.985)" fill="#001d3d" fill-rule="evenodd"/><g transform="translate(88.613 88.624)"><g clip-path="url(#a)"><g transform="translate(-78.672 -86.411)"><rect width="6.398" height="104.865" transform="matrix(0.707, -0.707, 0.707, 0.707, 0, 4.524)" fill="#fff"/></g></g></g><path d="M232.4,341.8l16.111-16.111-9.522-9.522a4.434,4.434,0,0,0-6.255,0l-9.856,9.854a4.438,4.438,0,0,0,0,6.257Z" transform="translate(-221.583 -314.873)" fill="#00c18a" stroke="#001d3d" stroke-linecap="round" stroke-linejoin="round" stroke-width="5" fill-rule="evenodd"/><rect width="22.785" height="92.642" transform="matrix(0.707, -0.707, 0.707, 0.707, 10.812, 26.923)" fill="#3f83a5"/><g transform="translate(10.812 10.811)"><g transform="translate(0 0)" clip-path="url(#b)"><g transform="translate(9.141 -1.519)"><rect width="7.968" height="98.764" transform="translate(0 5.634) rotate(-44.998)" fill="#fff"/></g></g></g><rect width="22.785" height="92.642" transform="matrix(0.707, -0.707, 0.707, 0.707, 10.812, 26.923)" stroke-width="5" stroke="#001d3d" stroke-linecap="round" stroke-linejoin="round" fill="none"/></g><path d="M233.478,366.627c4.434-6.908,13.524-18.119,23.23-29.4l13.27,13.27c-11.264,9.69-22.466,18.774-29.372,23.21l-.038-.063-.039-.065-.014-.024-.024-.039-.041-.065-.039-.063-.008-.012-.032-.053-.04-.063-.041-.063v0l-.04-.063-.043-.065-.032-.049-.008-.014-.085-.128-.026-.036-.016-.026-.043-.063-.045-.063-.016-.026-.028-.038-.043-.063-.045-.063-.01-.012-.036-.051-.045-.065-.045-.063-.047-.063-.047-.063-.036-.051-.01-.012-.047-.063-.047-.063-.03-.039-.018-.024-.049-.063-.049-.063-.018-.026-.03-.036-.049-.063-.051-.063-.008-.012-.04-.051-.051-.063-.051-.063h0l-.144-.174-.01-.012-.105-.126-.03-.036-.02-.026-.055-.063-.053-.061-.022-.024-.032-.038-.053-.061-.055-.063-.012-.012-.045-.051-.053-.061-.057-.063-.057-.061-.055-.063-.047-.049-.012-.012-.057-.061-.057-.063-.034-.036-.024-.024-.059-.061-.057-.063-.024-.024-.034-.036-.061-.061-.059-.061-.012-.012-.049-.049-.061-.063-.061-.061-.059-.059-.061-.061-.043-.041-.018-.016-.059-.059-.061-.059-.024-.024-.036-.034-.061-.057-.059-.059-.008,0-.053-.051-.061-.057-.051-.047-.01-.01-.061-.055-.061-.057-.03-.026-.03-.028-.061-.053-.063-.055-.012-.012-.049-.043-.061-.053-.055-.049-.006,0-.061-.053-.063-.053-.036-.032-.024-.018-.061-.053-.063-.051-.018-.016-.043-.034-.061-.051-.063-.049,0,0-.059-.049-.063-.049-.045-.036-.016-.012-.063-.049-.061-.049-.028-.02-.034-.026-.063-.049-.061-.047-.008-.006-.055-.041-.063-.047-.053-.039-.01-.006-.063-.047-.061-.045-.034-.024-.028-.02-.063-.045-.063-.045-.014-.01-.049-.034-.063-.043-.059-.041,0,0-.063-.043-.063-.043-.041-.028-.022-.014-.063-.04-.063-.041-.022-.016-.043-.024-.063-.043-.063-.039,0,0-.061-.036-.063-.041-.255-.152-.063-.039-.063-.039-.01,0-.055-.032Z" transform="translate(-206.785 -291.843)" fill="#001d3d" fill-rule="evenodd"/><g transform="translate(26.693 45.384)"><g clip-path="url(#c)"><g transform="translate(-10.632 -66.008)"><path d="M238.073,406.3s13.22-15.461,29.706-32.974c9.951-10.569,20.853-21.244,31.43-31.544,28.109-27.372-.063-37.132-.063-37.132l-70.915,87.537.369,16.622Z" transform="translate(-228.231 -304.652)" fill="#fff" fill-rule="evenodd"/></g></g></g><path d="M233.478,366.627c4.434-6.908,13.524-18.119,23.23-29.4l13.27,13.27c-11.264,9.69-22.466,18.774-29.372,23.21l-.038-.063-.039-.065-.014-.024-.024-.039-.041-.065-.039-.063-.008-.012-.032-.053-.04-.063-.041-.063v0l-.04-.063-.043-.065-.032-.049-.008-.014-.085-.128-.026-.036-.016-.026-.043-.063-.045-.063-.016-.026-.028-.038-.043-.063-.045-.063-.01-.012-.036-.051-.045-.065-.045-.063-.047-.063-.047-.063-.036-.051-.01-.012-.047-.063-.047-.063-.03-.039-.018-.024-.049-.063-.049-.063-.018-.026-.03-.036-.049-.063-.051-.063-.008-.012-.04-.051-.051-.063-.051-.063h0l-.144-.174-.01-.012-.105-.126-.03-.036-.02-.026-.055-.063-.053-.061-.022-.024-.032-.038-.053-.061-.055-.063-.012-.012-.045-.051-.053-.061-.057-.063-.057-.061-.055-.063-.047-.049-.012-.012-.057-.061-.057-.063-.034-.036-.024-.024-.059-.061-.057-.063-.024-.024-.034-.036-.061-.061-.059-.061-.012-.012-.049-.049-.061-.063-.061-.061-.059-.059-.061-.061-.043-.041-.018-.016-.059-.059-.061-.059-.024-.024-.036-.034-.061-.057-.059-.059-.008,0-.053-.051-.061-.057-.051-.047-.01-.01-.061-.055-.061-.057-.03-.026-.03-.028-.061-.053-.063-.055-.012-.012-.049-.043-.061-.053-.055-.049-.006,0-.061-.053-.063-.053-.036-.032-.024-.018-.061-.053-.063-.051-.018-.016-.043-.034-.061-.051-.063-.049,0,0-.059-.049-.063-.049-.045-.036-.016-.012-.063-.049-.061-.049-.028-.02-.034-.026-.063-.049-.061-.047-.008-.006-.055-.041-.063-.047-.053-.039-.01-.006-.063-.047-.061-.045-.034-.024-.028-.02-.063-.045-.063-.045-.014-.01-.049-.034-.063-.043-.059-.041,0,0-.063-.043-.063-.043-.041-.028-.022-.014-.063-.04-.063-.041-.022-.016-.043-.024-.063-.043-.063-.039,0,0-.061-.036-.063-.041-.255-.152-.063-.039-.063-.039-.01,0-.055-.032Z" transform="translate(-206.785 -291.843)" fill="none" stroke="#001d3d" stroke-linecap="round" stroke-linejoin="round" stroke-width="5" fill-rule="evenodd"/><path d="M244.942,360.214c29.487-36.976,52.612-49.378,57.568-44.3,4.782,4.9-7.293,26.547-44.3,57.568Z" transform="translate(-195.019 -314.83)" fill="#3f83a5" fill-rule="evenodd"/><g transform="translate(49.923)"><g clip-path="url(#d)"><g transform="translate(-33.862 -20.624)"><path d="M239.277,404.894c15.467-17.4,62.32-68.952,81.28-78.591,19.767-10.047-21.41-21.651-21.41-21.651l-70.915,87.537.369,16.622Z" transform="translate(-228.231 -304.652)" fill="#fff" fill-rule="evenodd"/></g></g></g><path d="M244.942,360.214c29.487-36.976,52.612-49.378,57.568-44.3,4.782,4.9-7.293,26.547-44.3,57.568Z" transform="translate(-195.019 -314.83)" fill="none" stroke="#001d3d" stroke-linecap="round" stroke-linejoin="round" stroke-width="5" fill-rule="evenodd"/><path d="M231.792,356.4c-6.683,6.3-3.382,17.285-11.487,20.681,17.777,8.111,38.581-7.139,27.181-19.441C242.027,351.743,235.835,352.584,231.792,356.4Z" transform="translate(-220.305 -275.269)" fill="#6c35ad" fill-rule="evenodd"/></g></g><g transform="translate(1030.905 2084.984)"><g transform="translate(0 0)"><path d="M108.205,0A108.205,108.205,0,1,1,0,108.205,108.205,108.205,0,0,1,108.205,0Z" transform="translate(16.016 16.016)" fill="#fff" stroke="#666" stroke-width="4"/></g><g transform="translate(54.272 70.504)"><path d="M480.98,318.453V399.8a4.462,4.462,0,0,1-4.45,4.45H370.937V392.412H475.2V319.774H359.561v54.607h-4.616V318.453a4.462,4.462,0,0,1,4.45-4.45H476.531a4.462,4.462,0,0,1,4.45,4.45Zm-63.019,76.814a3.066,3.066,0,1,0,3.066,3.066A3.066,3.066,0,0,0,417.962,395.267Z" transform="translate(-341.083 -314.003)" fill="#001d3d" fill-rule="evenodd"/><path d="M421.06,370.882v3.3H374.574v-3.3c9.293,0,16.713-2.89,16.713-10.839h13.06C404.347,367.992,411.937,370.882,421.06,370.882Z" transform="translate(-320.937 -266.751)" fill="#001d3d" fill-rule="evenodd"/><path d="M364.452,340.924h13.222a3.137,3.137,0,0,1,3.129,3.127v46.63a3.138,3.138,0,0,1-3.129,3.129H364.452v-5.83h13.505V346.752H364.452Zm-13.222,0h13.222v5.828H350.947v41.228h13.505v5.83H351.231a3.138,3.138,0,0,1-3.127-3.129v-46.63A3.136,3.136,0,0,1,351.231,340.924Z" transform="translate(-348.104 -286.373)" fill="#001d3d" fill-rule="evenodd"/><rect width="21.856" height="13.066" transform="translate(5.421 72.531)" fill="#3f83a5"/><rect width="21.856" height="10.655" transform="translate(5.421 88.197)" fill="#6c35ad"/><rect width="21.856" height="6.799" transform="translate(5.421 63.132)" fill="#00c18a"/><g transform="translate(41.921 17.211)"><path d="M368.792,341.364l13.242-13.242m0,26.484-13.242-13.242" transform="translate(-368.792 -316.723)" fill="none" stroke="#00c18a" stroke-linecap="round" stroke-linejoin="round" stroke-width="8" fill-rule="evenodd"/><path d="M410.437,341.364l-13.242-13.242m0,26.484,13.242-13.242" transform="translate(-339.641 -316.723)" fill="none" stroke="#6c35ad" stroke-linecap="round" stroke-linejoin="round" stroke-width="8" fill-rule="evenodd"/><line x1="13.862" y2="50.031" transform="translate(27.448)" fill="none" stroke="#3f83a5" stroke-linecap="round" stroke-miterlimit="22.926" stroke-width="8"/></g></g></g><g transform="translate(225.583 2101)"><path d="M108.206,0A108.206,108.206,0,1,1,0,108.206,108.206,108.206,0,0,1,108.206,0Z" fill="#fff" stroke="#666" stroke-linecap="round" stroke-width="4"/><g transform="translate(52.064 42.119)"><rect width="29.939" height="17.39" rx="1.33" transform="translate(41.171 102.481)" stroke-width="5" stroke="#001d3d" stroke-linecap="round" stroke-linejoin="round" fill="#6c35ad"/><path d="M131.535,317.5A38.066,38.066,0,0,1,169.6,355.572c0,27.5-23.1,29.774-23.1,42.5v18.9a2.8,2.8,0,0,1-2.785,2.785H119.35a2.794,2.794,0,0,1-2.785-2.785v-18.9c0-12.465-23.094-15.208-23.094-42.5A38.066,38.066,0,0,1,131.535,317.5Z" transform="translate(-75.394 -299.892)" fill="none" stroke="#001d3d" stroke-linecap="round" stroke-linejoin="round" stroke-width="5" fill-rule="evenodd"/><line y2="5.522" transform="translate(55.697)" stroke-width="6" stroke="#00c18a" stroke-linecap="round" stroke-linejoin="round" fill="none"/><line x2="3.905" y2="3.905" transform="translate(16.129 16.757)" stroke-width="6" stroke="#00c18a" stroke-linecap="round" stroke-linejoin="round" fill="none"/><line x2="5.522" transform="translate(0 56.585)" stroke-width="6" stroke="#00c18a" stroke-linecap="round" stroke-linejoin="round" fill="none"/><line y1="3.905" x2="3.904" transform="translate(16.757 92.248)" stroke-width="6" stroke="#00c18a" stroke-linecap="round" stroke-linejoin="round" fill="none"/><line x1="3.905" y2="3.905" transform="translate(91.62 16.129)" stroke-width="6" stroke="#00c18a" stroke-linecap="round" stroke-linejoin="round" fill="none"/><line x1="5.522" transform="translate(106.76 55.697)" stroke-width="6" stroke="#00c18a" stroke-linecap="round" stroke-linejoin="round" fill="none"/><line x1="3.905" y1="3.905" transform="translate(92.248 91.62)" stroke-width="6" stroke="#00c18a" stroke-linecap="round" stroke-linejoin="round" fill="none"/><path d="M108.706,368.732h11.881l-2.562,4.78h-6.756Z" transform="translate(-58.506 -243.108)" fill="#001d3d" fill-rule="evenodd"/><line x2="8.54" y2="38.595" transform="translate(40.737 55.404)" stroke-width="5" stroke="#3f83a5" stroke-linecap="round" stroke-linejoin="round" fill="none"/><line x1="8.54" y2="38.595" transform="translate(63.358 55.404)" stroke-width="5" stroke="#3f83a5" stroke-linecap="round" stroke-linejoin="round" fill="none"/><path d="M104.218,338.425a11.406,11.406,0,1,1,15.58,15.582" transform="translate(-63.48 -283.022)" fill="none" stroke="#3f83a5" stroke-linecap="round" stroke-linejoin="round" stroke-width="5" fill-rule="evenodd"/><path d="M114.6,354.007a11.406,11.406,0,1,1,15.58-15.582" transform="translate(-58.287 -283.022)" fill="none" stroke="#3f83a5" stroke-linecap="round" stroke-linejoin="round" stroke-width="5" fill-rule="evenodd"/></g></g><g transform="translate(1457.589 2280.016)"><circle cx="108.206" cy="108.206" r="108.206" fill="#fff" stroke="#666" stroke-linecap="round" stroke-linejoin="round" stroke-width="4"/><g transform="translate(54.121 54.121)"><path d="M557.628,315.631l-17.388-1.762-9.621,1.427,27.529,27.529,1.244-9.855Z" transform="translate(-451.316 -313.774)" fill="#6c35ad" fill-rule="evenodd"/><path d="M534.552,329.842A54.682,54.682,0,0,1,587.4,315.678a54.676,54.676,0,0,1-14.164,52.845c-12.894,12.894-31.53,20.044-44.421,32.938l-27.2-27.2C514.507,361.372,521.658,342.738,534.552,329.842Z" transform="translate(-481.085 -313.822)" fill="none" stroke="#001d3d" stroke-linecap="round" stroke-linejoin="round" stroke-width="5" fill-rule="evenodd"/><circle cx="11.463" cy="11.463" r="11.463" transform="translate(60.298 24.326)" fill="#3f83a5" stroke="#001d3d" stroke-linecap="round" stroke-linejoin="round" stroke-width="5"/><path d="M491.973,383.33a27.648,27.648,0,0,1,21.789-32.318c-4.012,5.021-5.947,10.9-5.613,16.142,5.246.334,11.12-1.6,16.144-5.613a27.652,27.652,0,0,1-32.32,21.789Z" transform="translate(-491.483 -275.653)" fill="#00c18a" fill-rule="evenodd"/><path d="M518.277,350.483c-8.053-4.65-14.928-7.842-25.856-9.939,11.289-11.289,17.6-14.859,39.031-9.7-4.117,6.276-8,12.8-12.381,18.8Z" transform="translate(-490.52 -298.728)" fill="#6c35ad" stroke="#001d3d" stroke-linecap="round" stroke-linejoin="round" stroke-width="5" fill-rule="evenodd"/><path d="M519.272,360.055c4.646,8.047,7.836,14.92,9.933,25.844,11.26-11.26,14.843-17.566,9.743-38.871C532.364,351.344,525.517,355.4,519.272,360.055Z" transform="translate(-462.962 -279.741)" fill="#6c35ad" stroke="#001d3d" stroke-linecap="round" stroke-linejoin="round" stroke-width="5" fill-rule="evenodd"/></g></g><path d="M443.012,2185.571s61.978,5.082,97.291,89.58,91.263,89.314,91.263,89.314" transform="translate(5 23)" fill="none" stroke="#666" stroke-width="6" stroke-dasharray="8 8"/><path d="M443.012,2185.571s61.978,5.082,97.291,89.58,91.263,89.314,91.263,89.314" transform="translate(826 23)" fill="none" stroke="#666" stroke-width="6" stroke-dasharray="8 8"/><path d="M631.566,2185.571s-61.978,5.082-97.291,89.58-91.263,89.314-91.263,89.314" transform="translate(409 23)" fill="none" stroke="#666" stroke-width="6" stroke-dasharray="8 8"/></g></svg>