<svg xmlns="http://www.w3.org/2000/svg" width="102.019" height="102" viewBox="0 0 102.019 102">
  <g id="Grupo_209" data-name="Grupo 209" transform="translate(-875.371 -335.116)">
    <path id="Trazado_370" data-name="Trazado 370" d="M915.02,359.285a80.091,80.091,0,0,1-5.53,30.038,50.05,50.05,0,0,1,11.226,7.427A49.874,49.874,0,0,0,937.8,359.285Z" transform="translate(38.59 26.996)" fill="#d6d6d6" fill-rule="evenodd"/>
    <path id="Trazado_371" data-name="Trazado 371" d="M899.151,379.456a80.194,80.194,0,0,1,5.523-30.2,50.056,50.056,0,0,1-11.229-7.431,49.874,49.874,0,0,0-17.075,37.629,1.493,1.493,0,0,0,.006.171h22.774Z" transform="translate(0 6.655)" fill="#d6d6d6" fill-rule="evenodd"/>
    <path id="Trazado_372" data-name="Trazado 372" d="M914.119,359.285H886.892a80.127,80.127,0,0,0,5.525,30.036,49.817,49.817,0,0,1,21.7-4.941Z" transform="translate(12.259 26.996)" fill="#d6d6d6" fill-rule="evenodd"/>
    <path id="Trazado_373" data-name="Trazado 373" d="M899.467,350.2v25.426H926.7v-.171a80.152,80.152,0,0,0-5.528-30.2A49.806,49.806,0,0,1,899.467,350.2Z" transform="translate(26.911 10.652)" fill="#d6d6d6" fill-rule="evenodd"/>
    <path id="Trazado_375" data-name="Trazado 375" d="M926.378,436.115A50,50,0,1,1,976.39,386.11,50,50,0,0,1,926.378,436.115Z" transform="translate(0 0)" fill="none" stroke="#666" stroke-linecap="round" stroke-miterlimit="22.926" stroke-width="2" fill-rule="evenodd"/>
    <line id="Línea_155" data-name="Línea 155" y2="100" transform="translate(926.378 336.116)" fill="none" stroke="#666" stroke-linecap="round" stroke-miterlimit="22.926" stroke-width="2"/>
    <path id="Trazado_376" data-name="Trazado 376" d="M914.119,436.115c-15.042,0-27.227-22.386-27.227-50.005s12.186-49.994,27.227-49.994,27.231,22.377,27.231,49.994S929.156,436.115,914.119,436.115Z" transform="translate(12.259 0)" fill="none" stroke="#666" stroke-linecap="round" stroke-miterlimit="22.926" stroke-width="2" fill-rule="evenodd"/>
    <line id="Línea_156" data-name="Línea 156" x1="100.012" transform="translate(876.378 386.282)" fill="none" stroke="#666" stroke-linecap="round" stroke-miterlimit="22.926" stroke-width="2"/>
    <path id="Trazado_377" data-name="Trazado 377" d="M884.258,383.243a50.022,50.022,0,0,1,65.859,0,50.009,50.009,0,0,1-65.859,0Z" transform="translate(9.19 40.501)" fill="none" stroke="#666" stroke-linecap="round" stroke-miterlimit="22.926" stroke-width="2" fill-rule="evenodd"/>
    <path id="Trazado_378" data-name="Trazado 378" d="M917.188,360.855a49.816,49.816,0,0,1-32.93-12.372,50.022,50.022,0,0,1,65.859,0A49.828,49.828,0,0,1,917.188,360.855Z" transform="translate(9.19 0)" fill="none" stroke="#666" stroke-linecap="round" stroke-miterlimit="22.926" stroke-width="2" fill-rule="evenodd"/>
  </g>
</svg>
